<svg xmlns="http://www.w3.org/2000/svg" viewBox="0 0 500 500"><g id="freepik--Floor--inject-28"><g id="freepik--Background--inject-28"><path d="M489.26,244.17c-5.18-53.7-32.15-107.27-55.42-136.86C335.23-18.09,137.31-17.85,43.05,139.66,16.46,184.08-.23,282.85,19.52,355.9,44.79,449.4,144.37,485.81,255.11,485c103.47-.8,184.83-45.79,215.29-107.94C489.46,338.13,494.44,297.87,489.26,244.17Z" style="fill:#37474f"></path><path d="M43.05,139.66C16.46,184.08-.23,282.85,19.52,355.9A148.64,148.64,0,0,0,39.35,400h0l110-63.47L243,282.39h0L463.12,155.32h0c-9.16-19-19.54-35.62-29.28-48C335.23-18.09,137.31-17.85,43.05,139.66Z" style="fill:#263238"></path><g style="opacity:0.2"><path d="M43.22,215.1a8.53,8.53,0,0,0,3.86-6.68v-7.8c0-2.46-1.73-3.46-3.86-2.23L17.75,213.1c-1.17,6-2.21,12.21-3.11,18.5Z"></path><path d="M34.14,157.43l9.08-5.25a8.53,8.53,0,0,0,3.86-6.68v-7.8a2.6,2.6,0,0,0-1.27-2.55q-1.39,2.23-2.76,4.51A144.12,144.12,0,0,0,34.14,157.43Z"></path><path d="M82,88.82l7.7-4.45a8.51,8.51,0,0,0,3.85-6.66Q87.63,83,82,88.82Z"></path><path d="M47.08,290.49v-7.8c0-2.46-1.73-3.46-3.86-2.23l-32,18.5Q11.54,307,12.3,315l30.92-17.85A8.53,8.53,0,0,0,47.08,290.49Z"></path><path d="M140,174v-7.8c0-2.46-1.73-3.46-3.86-2.23l-35.7,20.61a8.52,8.52,0,0,0-3.85,6.68v7.8c0,2.46,1.72,3.46,3.85,2.23l35.7-20.61A8.53,8.53,0,0,0,140,174Z"></path><path d="M20.43,359.05c.76,2.57,1.56,5.11,2.43,7.6v-4.88C22.86,359.9,21.85,358.88,20.43,359.05Z"></path><path d="M20.68,267.68A8.52,8.52,0,0,0,24.53,261v-7.8c0-2.46-1.72-3.46-3.85-2.23L12,256q-.68,8.58-.93,17.25Z"></path><path d="M146.86,133.52l35.69-20.61a8.53,8.53,0,0,0,3.86-6.68V98.42c0-2.45-1.73-3.45-3.86-2.22l-35.69,20.61a8.53,8.53,0,0,0-3.86,6.68v7.8C143,133.75,144.73,134.75,146.86,133.52Z"></path><path d="M170.75,263.28l35.7-20.61A8.51,8.51,0,0,0,210.3,236v-7.81c0-2.46-1.72-3.45-3.85-2.22l-35.7,20.61a8.51,8.51,0,0,0-3.85,6.67v7.81C166.9,263.52,168.62,264.51,170.75,263.28Z"></path><path d="M77.87,111.65,113.56,91a8.53,8.53,0,0,0,3.86-6.68v-7.8c0-2.46-1.73-3.46-3.86-2.23L77.87,94.94A8.53,8.53,0,0,0,74,101.62v7.8C74,111.88,75.74,112.88,77.87,111.65Z"></path><path d="M143,172.32c0,2.46,1.73,3.46,3.86,2.23l35.69-20.61a8.53,8.53,0,0,0,3.86-6.68v-7.8c0-2.46-1.73-3.46-3.86-2.23l-35.69,20.61a8.53,8.53,0,0,0-3.86,6.68Z"></path><path d="M89.67,272.84,54,293.45a8.53,8.53,0,0,0-3.86,6.68v7.8c0,2.46,1.73,3.46,3.86,2.23l35.7-20.61a8.52,8.52,0,0,0,3.85-6.68v-7.8C93.52,272.61,91.8,271.61,89.67,272.84Z"></path><path d="M232.6,17.67a230.39,230.39,0,0,0-31.85,4.61l-7.45,4.3a8.53,8.53,0,0,0-3.86,6.68v7.81c0,2.46,1.73,3.45,3.86,2.22L229,22.68A8.56,8.56,0,0,0,232.6,17.67Z"></path><path d="M117.42,248.5v-7.8c0-2.46-1.73-3.46-3.86-2.23L77.87,259.08A8.53,8.53,0,0,0,74,265.76v7.8c0,2.46,1.73,3.46,3.86,2.23l35.69-20.61A8.53,8.53,0,0,0,117.42,248.5Z"></path><path d="M163.86,303.8V296c0-2.46-1.72-3.46-3.85-2.23l-35.7,20.61a8.53,8.53,0,0,0-3.86,6.68v7.8c0,2.46,1.73,3.46,3.86,2.23L160,310.48A8.52,8.52,0,0,0,163.86,303.8Z"></path><path d="M286.18,217.35l35.7-20.61a8.53,8.53,0,0,0,3.86-6.68v-7.8c0-2.46-1.73-3.46-3.86-2.23l-35.7,20.61a8.52,8.52,0,0,0-3.85,6.68v7.8C282.33,217.58,284.05,218.58,286.18,217.35Z"></path><path d="M310.08,224l35.7-20.61a8.52,8.52,0,0,0,3.85-6.68v-7.8c0-2.46-1.72-3.46-3.85-2.23l-35.7,20.61a8.53,8.53,0,0,0-3.86,6.68v7.8C306.22,224.24,308,225.24,310.08,224Z"></path><path d="M282.33,107.2V115c0,2.46,1.72,3.46,3.85,2.23l35.7-20.61a8.53,8.53,0,0,0,3.86-6.68v-7.8c0-2.46-1.73-3.46-3.86-2.23l-35.7,20.61A8.52,8.52,0,0,0,282.33,107.2Z"></path><path d="M306.54,33a8.53,8.53,0,0,0-3.86,6.68v7.81c0,2.45,1.73,3.45,3.86,2.22L334.89,33.3Q326,29.78,316.82,27Z"></path><path d="M299.33,72.31,263.64,92.92a8.53,8.53,0,0,0-3.86,6.68v7.8c0,2.46,1.73,3.46,3.86,2.23L299.33,89a8.53,8.53,0,0,0,3.86-6.68v-7.8C303.19,72.08,301.46,71.08,299.33,72.31Z"></path><path d="M349.63,106.85c0-2.46-1.72-3.46-3.85-2.23l-35.7,20.61a8.53,8.53,0,0,0-3.86,6.68v7.8c0,2.46,1.73,3.46,3.86,2.23l35.7-20.61a8.52,8.52,0,0,0,3.85-6.68Z"></path><path d="M438.66,133.16,403,153.76a8.53,8.53,0,0,0-3.86,6.68v7.81c0,2.46,1.72,3.45,3.85,2.22l35.7-20.61a8.53,8.53,0,0,0,3.86-6.68v-7.8C442.52,132.92,440.79,131.93,438.66,133.16Z"></path><path d="M438.15,113l-12.64,7.32a8.53,8.53,0,0,0-3.86,6.68v7.8c0,2.46,1.73,3.46,3.86,2.23l20.8-12Q442.22,118.6,438.15,113Z"></path><path d="M256.75,168.19v-7.8c0-2.46-1.73-3.46-3.86-2.23l-35.7,20.61a8.54,8.54,0,0,0-3.85,6.68v7.8c0,2.46,1.73,3.46,3.85,2.23l35.7-20.61A8.53,8.53,0,0,0,256.75,168.19Z"></path><path d="M392.22,77.85l-35.7,20.61a8.52,8.52,0,0,0-3.85,6.68v7.8c0,2.46,1.72,3.46,3.85,2.23l35.7-20.61a8.53,8.53,0,0,0,3.86-6.68v-7.8C396.08,77.62,394.35,76.62,392.22,77.85Z"></path><path d="M229,233.57,193.3,254.18a8.53,8.53,0,0,0-3.86,6.68v7.8c0,2.46,1.73,3.46,3.86,2.23L229,250.28a8.53,8.53,0,0,0,3.86-6.68v-7.8C232.85,233.34,231.12,232.34,229,233.57Z"></path><path d="M42.9,382.92a8.52,8.52,0,0,0,3.85-6.68v-7.8c0-2.46-1.72-3.46-3.85-2.23l-16.53,9.54a144.62,144.62,0,0,0,6.29,13.08Z"></path><path d="M375.21,153.78v7.8c0,2.46,1.73,3.46,3.86,2.23l35.69-20.61a8.53,8.53,0,0,0,3.86-6.68v-7.8c0-2.46-1.73-3.46-3.86-2.23L379.07,147.1A8.53,8.53,0,0,0,375.21,153.78Z"></path></g></g></g><g id="freepik--Shadows--inject-28"><path id="freepik--Shadow--inject-28" d="M169.49,404.33a12.86,12.86,0,0,0-1.23-.62l.15-.09-70-38.3V339.55l-15.76,9.09v25.77l64.94,35.53c.14,1.78,1.38,3.55,3.74,4.91,5,2.9,13.13,2.9,18.15,0,2.52-1.44,3.77-3.36,3.77-5.27S172,405.77,169.49,404.33Z" style="opacity:0.15"></path><path id="freepik--shadow--inject-28" d="M148.94,416.73a12,12,0,0,0-1.24-.62l.15-.09-70-38.3V352L62.11,361v25.77l64.94,35.53c.14,1.78,1.37,3.55,3.74,4.91,5,2.9,13.13,2.9,18.15,0,2.52-1.45,3.77-3.36,3.77-5.27S151.46,418.17,148.94,416.73Z" style="opacity:0.15"></path><path id="freepik--shadow--inject-28" d="M387.18,462.28a86.45,86.45,0,0,0-22.32-9.46c-10.06-2.88-22-5-30.52-8.49-11.12-4.53-16.1-11.24-16.43-18.68-.19-4.21,1.6-9.18,10.58-13.63a33.61,33.61,0,0,1,8.3-2.87,35.11,35.11,0,0,1,12.18-.09c18.12,2.68,26.67,9.66,33.64,16.63s14.71,10.47,28.5,16c5.9,2.35,12.18,4.58,17.79,7l.13.06a69.08,69.08,0,0,1,8.21,3.77c3.66,2.3,6.95,4.75,8.58,7.61s1.51,6.18-1.51,9.71a9.44,9.44,0,0,1-3.72,2.7,26.62,26.62,0,0,1-5.69,1.58,52.36,52.36,0,0,1-11.62.79,55.27,55.27,0,0,1-9.16-1.25A77.88,77.88,0,0,1,387.18,462.28Z" style="opacity:0.15"></path></g><g id="freepik--Pipelines--inject-28"><g id="freepik--Pipes--inject-28"><g id="freepik--Drain--inject-28"><path d="M95.56,335.79l5.14,3L90.4,356.58l-5.14-3h0c-1.32-.76-2.13-2.39-2.13-4.71a16.09,16.09,0,0,1,7.27-12.61C92.42,335.13,94.24,335,95.56,335.79Z" style="fill:#455a64"></path><path d="M88.27,351.87a16.1,16.1,0,0,1,7.28-12.61c4-2.32,7.28-.44,7.28,4.2a16.1,16.1,0,0,1-7.28,12.61C91.53,358.39,88.27,356.51,88.27,351.87Z" style="fill:#263238"></path><g style="opacity:0.30000000000000004"><path d="M90.4,350.64a11.38,11.38,0,0,1,5.15-8.92c2.84-1.64,5.15-.31,5.15,3a11.38,11.38,0,0,1-5.15,8.92C92.71,355.25,90.4,353.92,90.4,350.64Z"></path></g><g style="opacity:0.30000000000000004"><path d="M97.06,342.59a11.38,11.38,0,0,1-5.15,8.92,5.87,5.87,0,0,1-1.31.54,5.1,5.1,0,0,1-.2-1.41,11.38,11.38,0,0,1,5.15-8.92,5.75,5.75,0,0,1,1.32-.54A5.53,5.53,0,0,1,97.06,342.59Z"></path></g><path d="M91.91,354l60.33,34.87a1.83,1.83,0,0,1,.92,1.58v20.64h14.56V393.16h0v-4.65a13.05,13.05,0,0,0-6.53-11.31l-62-35.83a3.61,3.61,0,0,0-3.64.35,11.38,11.38,0,0,0-5.15,8.92A3.6,3.6,0,0,0,91.92,354Z" style="fill:#455a64"></path><path d="M167.72,389.2a12.76,12.76,0,0,0-.37-3c.05.39.21,3.17-5.14,4.95-5.78,1.92-9.05,0-9.05,0v19.95h14.56V393.85h0Z" style="fill:#37474f"></path><g style="opacity:0.30000000000000004"><path d="M91.91,354l60.33,34.87a1.83,1.83,0,0,1,.92,1.58v20.64h5.4V395.68h0v-2A13.08,13.08,0,0,0,152,382.36L91.19,347.21a9.69,9.69,0,0,0-.79,3.43A3.6,3.6,0,0,0,91.92,354Z"></path></g><path d="M170.74,402.79v5.95c0,1.53-1,3.07-3,4.23a16.1,16.1,0,0,1-14.59,0c-2-1.16-3-2.7-3-4.22v-6h3.07a2.92,2.92,0,0,0,1,2.1l.25.24a6.6,6.6,0,0,0,.89.64,11.36,11.36,0,0,0,10.31,0,6,6,0,0,0,.89-.64l.25-.24a2.93,2.93,0,0,0,1-2.1Z" style="fill:#263238"></path><path d="M170.74,402.79c0,1.52-1,3.06-3,4.22a16.16,16.16,0,0,1-14.59,0c-2-1.16-3-2.7-3-4.22s1-3.05,3-4.21c0,0,0,0,0,0v4.24h0a2.92,2.92,0,0,0,1,2.1l.25.24a6.6,6.6,0,0,0,.89.64,11.36,11.36,0,0,0,10.31,0,6,6,0,0,0,.89-.64l.25-.24a2.93,2.93,0,0,0,1-2.1v-4.21C169.74,399.74,170.74,401.27,170.74,402.79Z" style="fill:#455a64"></path></g><g id="freepik--drain--inject-28"><path d="M74.54,347.93l5.14,3L69.39,368.72l-5.15-3h0c-1.32-.76-2.13-2.39-2.13-4.71a16.1,16.1,0,0,1,7.28-12.61C71.4,347.27,73.23,347.16,74.54,347.93Z" style="fill:#455a64"></path><path d="M67.25,364a16.1,16.1,0,0,1,7.28-12.61c4-2.32,7.28-.44,7.28,4.2a16.1,16.1,0,0,1-7.28,12.61C70.51,370.53,67.25,368.65,67.25,364Z" style="fill:#263238"></path><g style="opacity:0.30000000000000004"><path d="M69.39,362.78a11.39,11.39,0,0,1,5.14-8.92c2.85-1.64,5.15-.31,5.15,3a11.36,11.36,0,0,1-5.15,8.92C71.69,367.39,69.39,366.06,69.39,362.78Z"></path></g><g style="opacity:0.30000000000000004"><path d="M76,354.73a11.36,11.36,0,0,1-5.15,8.92,5.68,5.68,0,0,1-1.31.54,5.53,5.53,0,0,1-.19-1.41,11.39,11.39,0,0,1,5.14-8.92,5.93,5.93,0,0,1,1.32-.54A5.53,5.53,0,0,1,76,354.73Z"></path></g><path d="M70.9,366.12,131.23,401a1.84,1.84,0,0,1,.91,1.58v19.95H146.7V405.3h0v-4.65a13.06,13.06,0,0,0-6.53-11.31l-62-35.83a3.63,3.63,0,0,0-3.65.35,11.39,11.39,0,0,0-5.14,8.92,3.62,3.62,0,0,0,1.51,3.33Z" style="fill:#455a64"></path><path d="M146.7,400.65a12.76,12.76,0,0,0-.37-3c.06.4.21,3.17-5.14,4.95-5.78,1.92-9.05,0-9.05,0v19.95H146.7V405.3h0Z" style="fill:#37474f"></path><g style="opacity:0.30000000000000004"><path d="M70.9,366.12,131.23,401a1.84,1.84,0,0,1,.91,1.58v19.95h5.4v-14.7h0v-2A13.05,13.05,0,0,0,131,394.51L70.18,359.35a9.47,9.47,0,0,0-.79,3.43,3.62,3.62,0,0,0,1.51,3.33Z"></path></g><path d="M149.73,414.93v5.95c0,1.53-1,3.07-3,4.23a16.12,16.12,0,0,1-14.6,0c-2-1.16-3-2.7-3-4.22v-6h3.07a2.89,2.89,0,0,0,1,2.1,2.72,2.72,0,0,0,.24.24,5.83,5.83,0,0,0,.89.64,11.38,11.38,0,0,0,10.32,0,6.37,6.37,0,0,0,.89-.64c.09-.08.16-.16.24-.24a3,3,0,0,0,1-2.1Z" style="fill:#263238"></path><path d="M149.73,414.93c0,1.52-1,3.06-3,4.22a16.18,16.18,0,0,1-14.6,0c-2-1.16-3-2.7-3-4.22s1-3.05,3-4.21c0,0,0,0,0,0v4.24h0a2.89,2.89,0,0,0,1,2.1,2.72,2.72,0,0,0,.24.24,5.83,5.83,0,0,0,.89.64,11.38,11.38,0,0,0,10.32,0,6.37,6.37,0,0,0,.89-.64c.09-.08.16-.16.24-.24a3,3,0,0,0,1-2.1v-4.21C148.72,411.88,149.73,413.41,149.73,414.93Z" style="fill:#455a64"></path></g></g></g><g id="freepik--Light--inject-28"><g id="freepik--light--inject-28"><g id="freepik--Wall--inject-28"><path d="M241.45,118.88c0-31-10.89-52.79-28.48-62.95s-41.9-8.69-68.76,6.82C90.51,93.75,47,169.15,47,231.16c0,31,10.89,52.79,28.48,62.94s41.9,8.69,68.76-6.81C197.92,256.29,241.45,180.89,241.45,118.88Z" style="fill:#FEAB5E"></path><path d="M241.45,118.88c0-31-10.89-52.79-28.48-62.95s-41.9-8.69-68.76,6.82C90.51,93.75,47,169.15,47,231.16c0,31,10.89,52.79,28.48,62.94s41.9,8.69,68.76-6.81C197.92,256.29,241.45,180.89,241.45,118.88Z" style="fill:#fff;opacity:0.9500000000000001"></path><g style="opacity:0.2"><path d="M89.67,272.84l-23.91,13.8a46.82,46.82,0,0,0,9.7,7.46c1.08.63,2.18,1.21,3.31,1.74l10.9-6.29a8.52,8.52,0,0,0,3.85-6.68v-7.8C93.52,272.61,91.8,271.61,89.67,272.84Z" style="fill:#FEAB5E"></path><path d="M143,131.29c0,2.46,1.73,3.46,3.86,2.23l35.69-20.61a8.53,8.53,0,0,0,3.86-6.68V98.42c0-2.45-1.73-3.45-3.86-2.22l-35.69,20.61a8.53,8.53,0,0,0-3.86,6.68Z" style="fill:#FEAB5E"></path><path d="M182.55,137.23l-35.69,20.61a8.53,8.53,0,0,0-3.86,6.68v7.8c0,2.46,1.73,3.46,3.86,2.23l35.69-20.61a8.53,8.53,0,0,0,3.86-6.68v-7.8C186.41,137,184.68,136,182.55,137.23Z" style="fill:#FEAB5E"></path><path d="M117.42,84.36V82.54A199.88,199.88,0,0,0,103,97.16L113.56,91A8.53,8.53,0,0,0,117.42,84.36Z" style="fill:#FEAB5E"></path><path d="M205.8,226.34l-35.05,20.24a8.51,8.51,0,0,0-3.85,6.67v7.81c0,2.46,1.72,3.45,3.85,2.22l11-6.36A223.27,223.27,0,0,0,205.8,226.34Z" style="fill:#FEAB5E"></path><path d="M217.19,178.77a8.54,8.54,0,0,0-3.85,6.68v7.8c0,2.46,1.73,3.46,3.85,2.23l7.75-4.47a220.46,220.46,0,0,0,8-21.35Z" style="fill:#FEAB5E"></path><path d="M117.42,248.5v-7.8c0-2.46-1.73-3.46-3.86-2.23L77.87,259.08A8.53,8.53,0,0,0,74,265.76v7.8c0,2.46,1.73,3.46,3.86,2.23l35.69-20.61A8.53,8.53,0,0,0,117.42,248.5Z" style="fill:#FEAB5E"></path><path d="M136.11,164l-35.7,20.61a8.52,8.52,0,0,0-3.85,6.68v7.8c0,2.46,1.72,3.46,3.85,2.23l35.7-20.61A8.53,8.53,0,0,0,140,174v-7.8C140,163.77,138.24,162.77,136.11,164Z" style="fill:#FEAB5E"></path></g></g><g id="freepik--light--inject-28"><path d="M303.46,266.59l-192,33.08h0c-13.66,2.25-25.92.25-36-5.56C57.87,283.94,47,262.16,47,231.16c0-62,43.54-137.41,97.24-168.42,26.85-15.5,51.16-17,68.75-6.81,10.06,5.81,17.92,15.42,22.81,28.38h0Z" style="fill:#FEAB5E;opacity:0.2"></path><path d="M303.46,266.59l-192,33.08h0c-13.66,2.25-25.92.25-36-5.56C57.87,283.94,47,262.16,47,231.16c0-62,43.54-137.41,97.24-168.42,26.85-15.5,51.16-17,68.75-6.81,10.06,5.81,17.92,15.42,22.81,28.38h0Z" style="fill:#fff;opacity:0.2"></path></g></g></g><g id="freepik--Character--inject-28"><g id="freepik--character--inject-28"><g id="freepik--Arm--inject-28"><path id="freepik--arm--inject-28" d="M432.88,261.2l-9.75-23.11c-4.66-11.91-2.91-28-2.91-28,5.61-.1,10.87,1.8,14.51,8.39s10.82,30,12.46,35.09a47.12,47.12,0,0,1,2.4,13.56c.32,5.88-1.18,16.7-1.57,22.55-.18,2.71-.15,5.31-.14,8s-.72,5.6-1.1,8.43a7.72,7.72,0,0,1-1.66,3.64c-.54.67-1.4.89-1.91,1.52s-.5,1.56-1.28,2.14-2,.55-2.73,1.19a25.29,25.29,0,0,1-2.24,2.14,5.22,5.22,0,0,0-1.93,1.65c-.43.69-.71,2.11-1.7,2.19s-1.48-.93-1.7-1.83a8.49,8.49,0,0,1,.82-5.23c.84-1.68,1.28-3.53,2.32-5.1a12,12,0,0,0,1.47-5.05c.13-1.19-.24-2.61-1.57-1.68-1.57,1.09-3.08,3.06-5.2,3.09-1.47,0-1.75-1.09-1.1-2.18a42.58,42.58,0,0,0,2.83-5.6c.82-2,1.43-4,2.31-5.95a25,25,0,0,1,1.63-2.95c1.65-2.65,1-5.73.71-8.65C435.43,275.4,433.77,266.37,432.88,261.2Z" style="fill:#ffa8a7"></path><path d="M419.27,209.17c7.91.59,12.33,2.21,16.55,10s9.85,26.57,11.08,30.44a59.42,59.42,0,0,1,3,14.44,58.6,58.6,0,0,1,.06,8.47s-1.07,2.07-7.4,2.07-8.2-1.11-8.2-1.11l-2-12.08-13-28.68Z" style="fill:#455a64"></path></g><g id="freepik--Bottom--inject-28"><path d="M327,421.14c-.64-.28-1.17,1.34-1,2.24.46,2.61,3,6.07,7.42,8.68s14.26,4.38,17.14,5.19,7.33,3.85,10,5.22c4.9,2.5,8.9,2.21,11.12,1.1a3.35,3.35,0,0,0,1.5-2.21c.58-2,.54-2.43.32-2.49Z" style="fill:#263238"></path><path d="M374.77,433a25.37,25.37,0,0,1-1.83,7.23,5.66,5.66,0,0,1-4.35,1.58c-3.72,0-7-1.31-10.42-3.31a28.65,28.65,0,0,0-7.06-3.2c-3-.79-9.69-2.23-12.65-3.14a21.14,21.14,0,0,1-7.53-4.14c-1.65-1.53-4-4.49-4.12-6.21.5-3.74,1.54-5.72,4-6.26s5.71.17,10.06,1.22c1.3.32,2.92.76,3.63.91,2.66.54,5.12,1.13,7.11,1.63a11.66,11.66,0,0,0,5.14.51,3.37,3.37,0,0,0,2.08-1c.7-.77,1.11-2.09,1.93-1.91,0,0,13.73,7.17,14.87,7.67C376.9,425.09,375.39,426.74,374.77,433Z" style="fill:#37474f"></path><path d="M326.81,421.77c.22-2.6,1.13-6,4.19-6.41,4.58-.62,9.06,1.25,13.46,2.28l-5.34-1.23c-6.16-1.29-11.38-2.73-12.31,5.36Z" style="fill:#fff"></path><path d="M343.38,417.14a4.12,4.12,0,0,0-1.49.92,8.23,8.23,0,0,0-1.21,1.48c-.43.68.43,1.12,1.07.38a9.89,9.89,0,0,1,1.69-1.68,2.46,2.46,0,0,1,1.55-.49l.76.16C345.74,417.3,344.06,417,343.38,417.14Z" style="fill:#fafafa"></path><path d="M350.18,418.49a1.86,1.86,0,0,0-1.5,0,3.52,3.52,0,0,0-1.52,1.2,14.25,14.25,0,0,0-1.3,2c-.21.46.92.81,1.21.33a21.29,21.29,0,0,1,1.22-1.81c.23-.29,1.22-1.36,2-1.23l.36.09c.06-.16-.13-.35-.27-.44Z" style="fill:#fafafa"></path><path d="M354.07,419.62a1.56,1.56,0,0,0-1,.22,4.41,4.41,0,0,0-1,1A8.26,8.26,0,0,0,351,423c-.21.61,1,.81,1.13.41a6.38,6.38,0,0,1,1.73-2.85,3,3,0,0,1,1.29-.7c0-.12-.15-.19-.27-.21S354.25,419.62,354.07,419.62Z" style="fill:#fafafa"></path><path d="M381,409.26s-4.31,13.09-5.63,16.07c-.42,1-2.41.75-3.51.86A12,12,0,0,0,368,427c-3.22,1.64-5.25,1.61-5.34-3.12,0-1-.46-1.52-1.64-1.68a7,7,0,0,1-2.64-.46c-.1-.12,0-.3.17-.4a4.42,4.42,0,0,0,2-3.07c1.34-5.6,2-10.43,3.51-17.31Z" style="fill:#ffa8a7"></path><path d="M391.42,279.78s-6.59,7.89-10.57,22.66a339.67,339.67,0,0,0-8.22,41.7c-.95,6.29-1.65,10.77-3.36,22.22-1.42,9.53-7.68,45-7.68,45s4.59,4,8.45,5.44c3.6,1.36,6.93,1.9,8.25,1.36,0,0,4.43-11.38,9.91-26.28a141.13,141.13,0,0,0,6.31-21c.72-3.69.55-10.25.48-13.56l29.46-45.5a31.3,31.3,0,0,0,5.5-9.5c3.87-9.72-1.07-23.74-1.07-23.74Z" style="fill:#263238"></path><path d="M380.85,302.44c-4.7,17.56-7.25,36.38-9.88,54.38-2.7,17.66-6.25,36.88-9.38,54.53,2.76-17.74,6.31-36.9,8.88-54.6,2.78-18,5.3-36.83,10.38-54.31Z" style="fill:#fff"></path><path d="M420.41,292.56H384.23a77,77,0,0,0-3.38,9.88,318.14,318.14,0,0,0-7.72,38.4c.88,5.92,1.87,12,2.8,16.18,2.43,11,3.94,18.84,5.87,23.39s6.54,11,6.56,11a141.28,141.28,0,0,0,6.15-20.6c.72-3.69.55-10.25.48-13.56l21.4-33L418.05,314C423.52,305.08,422.91,298.4,420.41,292.56Z"></path><path d="M433.06,429.88c-1.86-3-2.87-8.69-6.95-20.32l-15.91,13,9.43,15a13.46,13.46,0,0,1,.68,2.37C422.34,442.88,433.06,429.88,433.06,429.88Z" style="fill:#ffa8a7"></path><path d="M438.67,436.22c0-.17.07-1.57,0-1.74-.4-1.51-1.33-1.93-2.53-2.77a19.38,19.38,0,0,1-3.3-2.82c-.4-.56-.48-.85-1.1-1.1a5.83,5.83,0,0,0-4.86.64c-3.44,1.8-4.49,4-4.29,6.34.15,1.79.3,4.18-1.29,5.25-.66.45-1.7-2.42-1.7-2.42-1,1.63.4,3.9,1.11,7.22a13.8,13.8,0,0,1,.1,5.58c-.35,2.91-.75,2.9-2.3,3.1-1.33.18-5.11-.07-7.41,1.53a4.87,4.87,0,0,0-2.32,5.16c.41,1.12,3.86,6.55,16.44,4.52,3.65-.59,11.32-6.33,11.21-6.86a7,7,0,0,1,0-1.65c0-1.29.09-2.58.15-3.86a18.77,18.77,0,0,1,.22-3.68,19.22,19.22,0,0,0,.46-3c.24-2.59.49-5.17.73-7.75C438.12,437.12,438.77,437,438.67,436.22Z" style="fill:#37474f"></path><path d="M440.26,435.71c1.24,1.2.48,4.69-1.18,8.87-.74,1.85-2.11,5.05-1.71,8.44s.47,5-.4,6.59c-1.37,2.49-8.69,5.68-13,6.68a23.79,23.79,0,0,0,4.38-12.46c.44-7.49,1-12.32,4.44-15.65C437.12,434,440.26,435.71,440.26,435.71Z"></path><path d="M408.81,460.19s2.52,4.73,12.26,4.57c3.84-.06,5.89-1.93,6-7.75.12-7,.68-14.12,2.95-17.6s5.89-5.18,8.7-4.93a2.72,2.72,0,0,1,1.56,1.23s-2.81-.92-7.18,2.7c-3.23,2.68-4.1,8.27-4.05,15.21,0,3,.2,6.38-.67,8.65a6.93,6.93,0,0,1-4.65,4.1c-5.3,1.48-12.54-1-14.37-3.2A3.45,3.45,0,0,1,408.81,460.19Z" style="fill:#263238"></path><path d="M420.51,452.23a2,2,0,0,0-.79,1.16,3.33,3.33,0,0,0,1.53,3.05c.59.37,1.1.24.17-1A6.1,6.1,0,0,1,420.51,452.23Z" style="fill:#fafafa"></path><path d="M421,448.59s-.31.2-.38,1.18a4.74,4.74,0,0,0,1.79,3.13c1,.5.47-.68,0-1.26A7.57,7.57,0,0,1,421,448.59Z" style="fill:#fafafa"></path><path d="M420.69,444.58s-.34.09,0,1.43a4.26,4.26,0,0,0,2.12,1.87c.66.08,1-.25.17-.84C422.36,446.58,420.81,445.23,420.69,444.58Z" style="fill:#fafafa"></path><path d="M414.27,279.78c1.72,1.76,6,7.67,6.7,16.76a25.11,25.11,0,0,1-5.29,16.56c-1.38,20.16-2.69,58.22-2.69,58.22,4.68,6.61,5.87,10.85,8.95,20.68,1.87,6,8.35,29.66,8.35,29.66-9.48,1.43-15.24,9.76-15.24,9.76s-13.14-21.17-21.88-35.9c-6.4-10.78-8.6-15.42-10.74-21.53-2-5.62-3.4-12.42-5.32-25.54s-3.8-30.39-4.74-43.31-.4-26.41-.4-26.41Z" style="fill:#263238"></path><path d="M415.05,431.42c-4.53-7.17-13.48-21.62-17.87-28.87-5.75-9.73-12.16-19.27-15.5-30.18a282.81,282.81,0,0,1-6-33.43c-1.41-11.23-2.53-22.5-3.28-33.8q.69,8.46,1.63,16.9c1.79,16.86,4,33.76,8.16,50.2,3.26,10.85,9.62,20.43,15.3,30.14l17.59,29Z" style="fill:#fff"></path><path d="M431.36,295.58a7.9,7.9,0,0,1-3.87-2.75,10.89,10.89,0,0,1-1-2.85,29.23,29.23,0,0,0-1.63-4.84l-1,.44a29.34,29.34,0,0,1,1.56,4.68,11.65,11.65,0,0,0,1.13,3.15,8.91,8.91,0,0,0,4.71,3.26C431.3,296.31,431.34,296,431.36,295.58Z"></path><path d="M405.47,307.13a3.36,3.36,0,0,0,.7-.07c1.58-.35,2.81-1.41,5.26-4.54,1.86-2.39,1.67-4.1,1.36-6.94-.12-1.05-1.22-6.62-1.28-8.09l-1.05.58c.07,1.51,1.13,6.57,1.24,7.63.32,2.82.46,4.11-1.13,6.14-2.27,2.9-3.35,3.87-4.64,4.16s-6.78-.64-8.26-1.66c-.85-.59-2.27-7.87-3.11-14.29l-1.08.15c.42,3.24,1.92,13.9,3.57,15C398.52,306.25,403.27,307.19,405.47,307.13Z"></path></g><g id="freepik--Top--inject-28"><polygon points="394.9 203.29 396.89 217.87 416.7 216.86 414.56 201.07 394.9 203.29" style="fill:#ffa8a7"></polygon><path d="M387,176c-1.52,1.93-6.18,7.19-7,8.57l4.44,2.69Z" style="fill:#f28f8f"></path><path d="M387,176a83.18,83.18,0,0,1-7,8.57,46.81,46.81,0,0,1,7-8.57Z" style="fill:#fff"></path><path d="M398,161.35c-6.12-.66-10.09,3.68-11.87,16.71-.07.51-.82,1.31-1.39,3.26-2.46,8.36-1.09,16.32.33,18.44,3.55,2.85,7.49,3.92,13.2,3.43,4.35-.37,15.45-1.69,21.09-7.57,6.62-6.91,10-17.34,5.26-22.74C418,165.27,401.4,161.71,398,161.35Z" style="fill:#ffa8a7"></path><path d="M398,161.35c-9.2-.77-10.47,10.47-11.79,17.22-2.51,4.75-2.89,10.46-2.5,15.75a14.4,14.4,0,0,0,1.36,5.44,14.75,14.75,0,0,1-1.61-5.41c-.56-5.36-.21-11.15,2.31-16,1.21-6.78,3-18.21,12.23-17Z" style="fill:#fff"></path><path d="M385.09,199.76c.78,1.17,6.39,4.05,9.91,4.27l-.33-2.74A36.7,36.7,0,0,1,385.09,199.76Z" style="fill:#f28f8f"></path><path d="M396.81,184.18a1.15,1.15,0,0,0,2.05.34,15.32,15.32,0,0,1,2.23-2.59,5.63,5.63,0,0,1,3.79-1.28c5.14.39,3.88,7.16,1.36,9.52-4.13,3.85-6.32.52-6.32.52s-3,6.55,1.35,10.38c0,0,7.46,3.22,13.32,1.4,4.38-4.72,7.31-7.7,10.26-11.76,7-9.62,7-19.14,2.51-21.86.25-3.41-1.59-8.55-8.61-11.51-6.68-2.83-11.15-2.55-16-2.28s-10.77,2.48-15.26-1.27a9.19,9.19,0,0,0,.75,8.37,3,3,0,0,0-2.63,5.47,2.4,2.4,0,0,0-1.09,2.83,2.9,2.9,0,0,0,2.51,1.85,12.38,12.38,0,0,0,3-.19c1.41,3.94,5.86,5.32,8.51,5.16-.07,0-.42.54-.47.61-.15.22-.29.45-.42.68a9,9,0,0,0-.63,1.47,8.32,8.32,0,0,0-.37,3.17A2.84,2.84,0,0,0,396.81,184.18Z" style="fill:#455a64"></path><path d="M387.51,153.79a9.27,9.27,0,0,0,.83,8.32l.17.26-.29-.13a2.94,2.94,0,0,0-2.54,5.3l.18.09-.18.09c-2.51,1.6-.67,4.79,2,4.58a14.92,14.92,0,0,0,2.4-.18,9.75,9.75,0,0,1-3.61.15c-2.22-.49-3-3.56-.89-4.73v.18a3.13,3.13,0,0,1,2.7-5.65l-.11.14a9.09,9.09,0,0,1-.67-8.42Z" style="fill:#fff"></path><path d="M424.77,211.38c5.14,2.88,9.05,12.48,8.67,20.49-.24,5.08-2,18.17-3.54,29.75-.48,3.65,1,9.81,1.64,17.21.5,5.49.57,11.33.57,11.33s-6.89,8.52-25.79,9.63c-24.14,1.43-34.83-4.41-34.83-4.41s-.14-19.66.44-35.24c.86-23.09.91-29.84,4.52-37.71,1.19-2.32,2.44-7.49,6.37-8.52,3.12-.81,10.3-2.53,13.15-3,4.66,1.2,16.76,1.3,19.76-1.25l-.05-.67C420.87,209,421.6,209.61,424.77,211.38Z" style="fill:#FEAB5E"></path><path d="M295.46,270.46c.79.18,1.85-.23,3-1.24a15.21,15.21,0,0,0,4.47-8.31c.21-1.51,0-2.62-.61-3.18l-4.73-4.53a4.23,4.23,0,0,0-4.72-.4c-4,2.06-7.18,8-6.72,12.48C286.36,267.29,295,270.35,295.46,270.46Z" style="fill:#455a64"></path><path d="M302.68,260.45a3,3,0,0,0-5.08-2.74,11.07,11.07,0,0,0-4.75,8.81,3,3,0,0,0,5.09,2.74A11,11,0,0,0,302.68,260.45Z" style="fill:#263238"></path><path d="M327.48,284.21a2.15,2.15,0,0,0,2.09-.29,6.43,6.43,0,0,0,2.75-5.11,2.14,2.14,0,0,0-.91-1.9l-30.12-17.18a3,3,0,0,0-2.88.06,6.53,6.53,0,0,0-3.38,6.28,3,3,0,0,0,1.54,2.43Z" style="fill:#455a64"></path><path d="M332.32,278.81a2.14,2.14,0,0,0-.91-1.9,2,2,0,0,0-2.08.22,6.35,6.35,0,0,0-2.81,5.21,2,2,0,0,0,1,1.87,2.15,2.15,0,0,0,2.09-.29A6.43,6.43,0,0,0,332.32,278.81Z" style="fill:#263238"></path><g id="freepik--arm--inject-28"><path d="M365.25,274.35c2.72-.91,4.73-4.06,8.63-12.18,4.88-10.1,7.51-12.38,11.09-22.72,3-7.57-1-21.53-2.82-24.44-6.09,2.17-10.34,4.18-14.45,12.72-3.69,7.68-11.08,23.18-14.45,30,0,0-19.61,4.23-24.88,4.58a11.21,11.21,0,0,1-5.94-1.11,7.62,7.62,0,0,0-3.56-.84,4,4,0,0,0-1.43.21,6.82,6.82,0,0,0-2.24,1.74,41.44,41.44,0,0,1-4.13,3c-1.59,1.19-3.46,2-5.07,3.21-1.38,1-2.9,1.87-3.77,3.41a2.16,2.16,0,0,0-.32.82,1.76,1.76,0,0,0,.48,1.4,3,3,0,0,0,1.3.79,6.57,6.57,0,0,1,2,.69c.65.48.7,1.43,1.29,2,.92.87,2.43.74,3.48,1.46.81.56,1.26,1.58,2.13,2a4.28,4.28,0,0,0,1.5.36c.92.09,1.83.37,2.75.37,1.1,0,1.58-.52,2.49-1,3.14-1.75,4.84-3.85,10.39-4.22C333.43,276.36,362.53,275.26,365.25,274.35Z" style="fill:#ffa8a7"></path><path d="M382.74,213.91c-6.63,1.58-10.55,4-14.91,12-4,7.41-15,31.09-15,31.09l-11,3.09a11.32,11.32,0,0,0-1.7,8.87c1.05,5.14,3.33,7.45,3.33,7.45s5.61-.16,15.17-.49,10.25-2.54,12.35-6.7,15-29.26,15-29.26S391.2,221.4,382.74,213.91Z" style="fill:#455a64"></path><path d="M396,211c-4.46.82-8.86,2-13.24,3.1a20.55,20.55,0,0,0-9,4.23c-4.24,3.81-6.49,9.2-9,14.2-4,8.14-7.75,16.38-11.6,24.58l0,.1-.11,0-11,3.06c-5.34.81-11,2.6-16.42,2.1-1.87-.17-3.44-1.38-5.22-1.73a6.54,6.54,0,0,0-2.68,0,5.41,5.41,0,0,0-2.15,1.56c-2.77,2.48-6.08,4.17-9.17,6.14-1.45,1.09-3.17,2-4.1,3.6.91-1.64,2.62-2.56,4-3.67,3.05-2,6.35-3.79,9-6.25a5.58,5.58,0,0,1,2.26-1.64,6.78,6.78,0,0,1,2.8,0c1.83.34,3.34,1.53,5.21,1.7,5.42.45,11-1.34,16.28-2.19l10.94-3.11-.15.13q5.65-12.37,11.67-24.56c2.57-5,4.87-10.43,9.17-14.25a19.21,19.21,0,0,1,9.33-4.21c3.83-1.07,8.86-2.15,13.14-2.9Z" style="fill:#fff"></path></g></g><path id="freepik--shadow--inject-28" d="M378.51,357a372.47,372.47,0,0,0-10,51.93c-.68,5.67-1.54,11.95-5.93,15.59-3.37,2.79-8,3.31-12.38,3.63-8.18.58-17.05.63-23.91-3.65.88,2.43,3.27,5.32,7.12,7.58,4.46,2.61,14.26,4.38,17.15,5.19s7.32,3.84,10,5.22c4.9,2.5,8.9,2.21,11.13,1.1a3.37,3.37,0,0,0,1.49-2.22c.59-2,.54-2.43.32-2.48h0a29.74,29.74,0,0,0,1.3-5.9c.59-6,2-7.75.94-8.39.57-1.44,1.43-3.86,2.29-6.35a2.29,2.29,0,0,0,.28-.08s4.43-11.38,9.92-26.27c.37-1,.72-2,1.06-2.94-3.72-6.37-5.62-10.13-6.84-14.95S379.91,364.59,378.51,357Zm71.35-93a60.49,60.49,0,0,0-2.95-14.45c-1.24-3.87-6.87-22.7-11.09-30.44s-8.64-9.37-16.55-10h0a27.47,27.47,0,0,0-3.59-.15s0,.38,0,.57l-1-7.27c4.3-4.63,7.21-7.6,10.12-11.61,7-9.63,7-19.14,2.51-21.86.26-3.42-1.59-8.55-8.6-11.51a30.36,30.36,0,0,0-7-2.08,36.4,36.4,0,0,0-6.94,1.51c-3.11,1-6.2,2.53-8.18,5.13-1.72,2.28-2.43,5.14-3.1,7.91-2.15,8.89-4.3,17.95-3.59,27.06a10.37,10.37,0,0,0,1.12,4.47A6.13,6.13,0,0,0,395,204s4.31.28,6.47.32c.3,1.84.73,4.6,1,6.44a3.06,3.06,0,0,1-.08,1.85,3,3,0,0,1-2,1.27c-7.82,2.15-16.94,2.34-22.44,8.3a28.7,28.7,0,0,0-4.6,7.8l-8.58,18.89c-1.86,4.11-3.85,8.38-7.4,11.16-6.41,5-15.56,3.66-23.46,5.61-5.73,1.42-10.83,4.61-16.5,6.19-1.3.37-2.6.72-3.92,1s-2.78.15-4.16.36a2.53,2.53,0,0,0-2.21,1.95,3.56,3.56,0,0,0,.27,1.61,3.84,3.84,0,0,0,1.31,1.68,5.46,5.46,0,0,1,1.74.66c.82.56,1.26,1.58,2.13,2a4.06,4.06,0,0,0,1.5.35,23.56,23.56,0,0,0,2.75.37c1.1,0,1.58-.52,2.49-1l.71-.42c2.72-1.65,4.57-3.47,9.69-3.81l1.06-.06c2.32-.12,7.11-.33,12.42-.58.22.27.35.4.35.4s5.61-.15,15.17-.48,10.25-2.55,12.35-6.7l.64-1.26V268c3.07-6,8.53-16.73,10.33-20.24,0,0-.66,29-.59,41.59.13,23.47,3.81,46.75,7.47,69.93.91,5.7,3.33,11.12,5.36,16.55,2.24,6,4.55,12,7,17.9a219.29,219.29,0,0,0,17.22,33.67,35.78,35.78,0,0,1,4,7.23c1.26,3.61,1.19,7.53,1.07,11.34a27.75,27.75,0,0,1-1.35,9.26c-2,5.34-8.95,5.85-13.27,2.7a4.42,4.42,0,0,0-.11,2.28,3.49,3.49,0,0,0,.53,3c1.83,2.24,9.07,4.69,14.37,3.2l.26-.08c4.31-1,11.63-4.18,13-6.67.88-1.59.81-3.2.4-6.59s1-6.59,1.71-8.45c1.67-4.18,2.42-7.66,1.18-8.87a2.73,2.73,0,0,0-1.56-1.23c-.4-1.5-1.33-1.92-2.52-2.76a18.65,18.65,0,0,1-3.31-2.83,3.18,3.18,0,0,0-.76-.92c-.64-1.54-1.26-3.58-2.07-6.25l.26,0S423.81,398,421.94,392c-3.08-9.83-4.27-14.07-8.95-20.68,0,0,.85-24.65,1.9-44.78l9.56-14.77a28.64,28.64,0,0,0,4.52-7.21,1.3,1.3,0,0,0-.08.17,1.74,1.74,0,0,0,.58.07c2.12,0,3.63-2,5.2-3.09a1.07,1.07,0,0,1,1-.24l.11-.07c1.69-.81,1.79,3,1.76,3.81a16.94,16.94,0,0,1-1.38,5.58c-1.18,2.94-2.67,5.9-2.53,9.06a2.37,2.37,0,0,0,.09.65c.7-.35,1-1.49,1.33-2.09a5.4,5.4,0,0,1,1.93-1.65,23.83,23.83,0,0,0,2.24-2.13c.74-.64,1.88-.54,2.74-1.19s.73-1.48,1.27-2.14,1.37-.85,1.92-1.53a7.71,7.71,0,0,0,1.65-3.64c.38-2.83,1.11-5.57,1.1-8.42s0-5.33.15-8c.27-4.23,1.13-11.06,1.47-16.74a1.67,1.67,0,0,0,.41-.46A59.21,59.21,0,0,0,449.86,264Zm-10.62,22.07c-.58,2.15-2.24,3.79-3.51,5.61-2.54,3.64-3.59,8.17-6.24,11.74l0,0h0c.16-.38.33-.77.49-1.18A26.31,26.31,0,0,0,431.34,291a7.47,7.47,0,0,0,.77-.8s-.07-5.84-.57-11.32c-.67-7.41-2.12-13.56-1.64-17.21.57-4.34,1.18-8.9,1.72-13.17h0a77.64,77.64,0,0,1,4,9.37c2.7,7.85,3.37,16.21,3.8,24.44A12.14,12.14,0,0,1,439.24,286.08Z" style="opacity:0.30000000000000004"></path></g></g><g id="freepik--Number--inject-28"><path d="M106.14,192.74l-10.5,6.06v25.26l-14.5,8.37,17-64L86.86,175,68.62,243.2V253l27-15.6V252l10.5-6.06V231.3l7.1-4.1V213.9l-7.1,4.1Zm38.21-51c-15.07,8.7-27.28,32-27.28,52.12s12.21,29.32,27.28,20.63,27.28-32,27.28-52.13S159.41,133.09,144.35,141.79Zm0,58.74c-9.27,5.35-16.78-.33-16.78-12.68s7.51-26.71,16.78-32.06,16.77.33,16.77,12.69S153.61,195.18,144.35,200.53Zm68.36-44.06V131.21l-10.51,6.06v25.26l-14.49,8.37,17-64-11.29,6.52-18.24,68.22v9.76l27-15.6v14.62l10.51-6.06V169.77l7.1-4.1v-13.3Z" style="fill:#FEAB5E"></path></g><g id="freepik--Text--inject-28"><g id="freepik--404--inject-28"><path d="M104.69,151.81a.15.15,0,0,1,.18,0c.06,0,.08.1.08.2v.93a.55.55,0,0,1-.08.29.48.48,0,0,1-.18.21l-4.31,2.49a.15.15,0,0,1-.18,0,.25.25,0,0,1-.08-.2v-8.45a.67.67,0,0,1,.08-.29.48.48,0,0,1,.18-.21l4.23-2.44a.15.15,0,0,1,.19,0,.25.25,0,0,1,.07.21v.92a.66.66,0,0,1-.07.3.56.56,0,0,1-.19.21l-3.17,1.83v2.08l3-1.71a.16.16,0,0,1,.19,0,.25.25,0,0,1,.08.2v.93a.67.67,0,0,1-.08.3.44.44,0,0,1-.19.21l-3,1.7v2.17Z" style="fill:#37474f"></path><path d="M109,141.82c.82-.47,1.44-.57,1.87-.31s.63.83.63,1.73a5.06,5.06,0,0,1-.33,1.82,4.88,4.88,0,0,1-1,1.56l1.35,2.45a.27.27,0,0,1,0,.12.53.53,0,0,1-.06.24.52.52,0,0,1-.15.17l-.84.49c-.13.07-.22.09-.29,0a.58.58,0,0,1-.13-.15l-1.28-2.31-1.31.75v3.05a.53.53,0,0,1-.08.29.58.58,0,0,1-.18.22l-.8.45a.14.14,0,0,1-.18,0,.23.23,0,0,1-.08-.21v-8.44a.53.53,0,0,1,.08-.29.51.51,0,0,1,.18-.22Zm-1.47,5,1.42-.82a2.87,2.87,0,0,0,.9-.78,1.94,1.94,0,0,0,.33-1.18c0-.49-.11-.75-.33-.79a1.43,1.43,0,0,0-.9.27l-1.42.82Z" style="fill:#37474f"></path><path d="M115.53,138c.82-.47,1.44-.58,1.86-.32s.64.84.64,1.74a5,5,0,0,1-1.29,3.38l1.35,2.44a.31.31,0,0,1,0,.13.53.53,0,0,1-.06.24.44.44,0,0,1-.16.17l-.83.48c-.13.08-.23.09-.29.05a.48.48,0,0,1-.13-.16l-1.29-2.3-1.3.75v3.05a.67.67,0,0,1-.08.29.48.48,0,0,1-.18.21l-.8.46a.17.17,0,0,1-.18,0,.23.23,0,0,1-.08-.21V140a.56.56,0,0,1,.08-.3.48.48,0,0,1,.18-.21Zm-1.47,5,1.42-.82a2.84,2.84,0,0,0,.89-.78,1.91,1.91,0,0,0,.34-1.19c0-.48-.11-.75-.34-.78a1.46,1.46,0,0,0-.89.26l-1.42.82Z" style="fill:#37474f"></path><path d="M119.07,139.4a7.74,7.74,0,0,1,.21-1.5,6,6,0,0,1,.54-1.43,5.77,5.77,0,0,1,.88-1.27,5.18,5.18,0,0,1,1.25-1,3,3,0,0,1,1.25-.44,1.23,1.23,0,0,1,.88.25,1.61,1.61,0,0,1,.54.81,4.58,4.58,0,0,1,.22,1.26c0,.16,0,.34,0,.54s0,.41,0,.62,0,.42,0,.62,0,.39,0,.56a7.74,7.74,0,0,1-.21,1.5,6.48,6.48,0,0,1-.54,1.43,5.49,5.49,0,0,1-.89,1.27,4.88,4.88,0,0,1-1.25,1,2.93,2.93,0,0,1-1.25.45,1.27,1.27,0,0,1-.88-.24,1.61,1.61,0,0,1-.54-.81,4.67,4.67,0,0,1-.21-1.26c0-.16,0-.34,0-.54s0-.41,0-.62,0-.42,0-.62S119.07,139.57,119.07,139.4Zm4.44-2.5a1.43,1.43,0,0,0-.45-1.19q-.42-.28-1.11.12a2.91,2.91,0,0,0-1.1,1.15,3.72,3.72,0,0,0-.45,1.72c0,.34,0,.71,0,1.12s0,.77,0,1.09a1.4,1.4,0,0,0,.45,1.19A1,1,0,0,0,122,142a2.93,2.93,0,0,0,1.11-1.15,3.81,3.81,0,0,0,.45-1.71c0-.34,0-.71,0-1.12S123.53,137.22,123.51,136.9Z" style="fill:#37474f"></path><path d="M128.92,130.3c.82-.47,1.44-.58,1.87-.32s.64.84.64,1.74a5.1,5.1,0,0,1-.33,1.82,4.76,4.76,0,0,1-1,1.55l1.35,2.45a.28.28,0,0,1,0,.13.53.53,0,0,1-.06.24.36.36,0,0,1-.15.17l-.84.48c-.13.08-.22.09-.29,0a.37.37,0,0,1-.13-.15l-1.28-2.3-1.31.75v3a.65.65,0,0,1-.07.29.56.56,0,0,1-.19.21l-.8.46a.15.15,0,0,1-.18,0,.23.23,0,0,1-.08-.2v-8.45a.67.67,0,0,1,.08-.29.48.48,0,0,1,.18-.21Zm-1.47,5,1.42-.83a2.85,2.85,0,0,0,.9-.77,2,2,0,0,0,.33-1.19c0-.49-.11-.75-.33-.79a1.57,1.57,0,0,0-.9.27l-1.42.82Z" style="fill:#37474f"></path><path d="M140.81,132.59c-.12.07-.2.08-.26,0a.81.81,0,0,1-.13-.11l-2.74-3.85v5.39a.67.67,0,0,1-.08.29.49.49,0,0,1-.19.21l-.79.46a.16.16,0,0,1-.19,0,.25.25,0,0,1-.08-.2v-8.45a.67.67,0,0,1,.08-.29.49.49,0,0,1,.19-.21l.69-.4c.11-.06.19-.07.25,0l.13.11,2.74,3.85V124a.71.71,0,0,1,.08-.3.49.49,0,0,1,.19-.21l.79-.46a.16.16,0,0,1,.19,0,.25.25,0,0,1,.08.2v8.45a.63.63,0,0,1-.08.29.6.6,0,0,1-.19.22Z" style="fill:#37474f"></path><path d="M132.82,136.41a1.23,1.23,0,0,1,.11-.38.66.66,0,0,1,.27-.3l.76-.44a.12.12,0,0,1,.14,0,.18.18,0,0,1,.06.15s0,.06,0,.08l-.58,2.29c0,.09-.07.19-.12.31a.64.64,0,0,1-.26.28l-.4.23a.1.1,0,0,1-.13,0s-.06-.07-.06-.14v0Z" style="fill:#37474f"></path><path d="M143.05,125.56a7.74,7.74,0,0,1,.21-1.5,6.09,6.09,0,0,1,.54-1.44,5.61,5.61,0,0,1,.88-1.26,5,5,0,0,1,1.25-1,2.85,2.85,0,0,1,1.25-.44,1.24,1.24,0,0,1,.88.24,1.69,1.69,0,0,1,.54.82,4.45,4.45,0,0,1,.22,1.26c0,.16,0,.34,0,.54V124c0,.2,0,.39,0,.56a7.74,7.74,0,0,1-.21,1.5,6.48,6.48,0,0,1-.54,1.43,5.82,5.82,0,0,1-.89,1.27,5.11,5.11,0,0,1-1.25,1,2.93,2.93,0,0,1-1.25.45,1.26,1.26,0,0,1-.88-.24,1.6,1.6,0,0,1-.54-.82,4.59,4.59,0,0,1-.21-1.25c0-.17,0-.34,0-.54s0-.41,0-.62,0-.42,0-.63S143,125.73,143.05,125.56Zm4.44-2.5a1.47,1.47,0,0,0-.45-1.2,1.05,1.05,0,0,0-1.11.12,3,3,0,0,0-1.1,1.16,3.85,3.85,0,0,0-.46,1.72c0,.34,0,.71,0,1.11s0,.77,0,1.1a1.41,1.41,0,0,0,.46,1.18,1,1,0,0,0,1.1-.12A3,3,0,0,0,147,127a3.81,3.81,0,0,0,.45-1.71c0-.34,0-.71,0-1.12S147.5,123.38,147.49,123.06Z" style="fill:#37474f"></path><path d="M154.54,115.51a.16.16,0,0,1,.19,0,.23.23,0,0,1,.08.2v.93a.67.67,0,0,1-.08.29.49.49,0,0,1-.19.21l-1.76,1v7.17a.67.67,0,0,1-.08.29.49.49,0,0,1-.19.21l-.79.46a.16.16,0,0,1-.19,0,.22.22,0,0,1-.08-.2v-7.16l-1.76,1a.16.16,0,0,1-.19,0,.25.25,0,0,1-.08-.2v-.93a.67.67,0,0,1,.08-.3.49.49,0,0,1,.19-.21Z" style="fill:#37474f"></path><path d="M162.23,111.07a.15.15,0,0,1,.18,0,.22.22,0,0,1,.08.2v.93a.53.53,0,0,1-.08.29.58.58,0,0,1-.18.22l-3.13,1.8v2.54l2.93-1.69a.15.15,0,0,1,.19,0,.26.26,0,0,1,.08.21v.92a.67.67,0,0,1-.08.3.49.49,0,0,1-.19.21l-2.93,1.69v3a.67.67,0,0,1-.08.29.48.48,0,0,1-.18.21l-.8.46a.15.15,0,0,1-.18,0,.21.21,0,0,1-.08-.2V114a.56.56,0,0,1,.08-.3.48.48,0,0,1,.18-.21Z" style="fill:#37474f"></path><path d="M163.32,113.86a7.74,7.74,0,0,1,.21-1.5,6.54,6.54,0,0,1,.53-1.44,6.71,6.71,0,0,1,.88-1.27,5.2,5.2,0,0,1,1.26-1,3,3,0,0,1,1.24-.45,1.31,1.31,0,0,1,.89.25,1.84,1.84,0,0,1,.54.82,4.47,4.47,0,0,1,.21,1.26c0,.16,0,.34,0,.54v1.24c0,.2,0,.39,0,.56a7.74,7.74,0,0,1-.21,1.5,6.46,6.46,0,0,1-.53,1.43,5.82,5.82,0,0,1-.89,1.27,5.3,5.3,0,0,1-1.25,1,3,3,0,0,1-1.26.45,1.29,1.29,0,0,1-.88-.24,1.65,1.65,0,0,1-.53-.82,4.59,4.59,0,0,1-.21-1.25c0-.17,0-.35,0-.55v-1.24C163.3,114.21,163.31,114,163.32,113.86Zm4.44-2.5a1.45,1.45,0,0,0-.46-1.2,1,1,0,0,0-1.1.12,2.87,2.87,0,0,0-1.1,1.16,3.82,3.82,0,0,0-.46,1.72c0,.34,0,.71,0,1.11s0,.77,0,1.1a1.41,1.41,0,0,0,.46,1.18,1,1,0,0,0,1.1-.12,3,3,0,0,0,1.1-1.15,3.81,3.81,0,0,0,.46-1.71c0-.34,0-.71,0-1.12S167.77,111.68,167.76,111.36Z" style="fill:#37474f"></path><path d="M175.68,103.31a.15.15,0,0,1,.19,0,.25.25,0,0,1,.07.21v5.36a6.66,6.66,0,0,1-.17,1.56,6.28,6.28,0,0,1-.53,1.43,5.94,5.94,0,0,1-.88,1.24,5.57,5.57,0,0,1-1.23,1,3.1,3.1,0,0,1-1.23.45,1.23,1.23,0,0,1-.88-.21,1.61,1.61,0,0,1-.52-.83,4.46,4.46,0,0,1-.17-1.36v-5.36a.62.62,0,0,1,.07-.29.6.6,0,0,1,.19-.22l.8-.46a.15.15,0,0,1,.18,0,.26.26,0,0,1,.08.21v5.29a2.74,2.74,0,0,0,.11.85.85.85,0,0,0,.3.45.67.67,0,0,0,.47.08,1.8,1.8,0,0,0,.6-.23,3,3,0,0,0,.6-.46,2.69,2.69,0,0,0,.48-.63,3.6,3.6,0,0,0,.31-.8,4.26,4.26,0,0,0,.11-1v-5.3a.67.67,0,0,1,.08-.29.44.44,0,0,1,.19-.21Z" style="fill:#37474f"></path><path d="M181.88,108.88a.26.26,0,0,1-.26,0l-.13-.11L178.75,105v5.38a.67.67,0,0,1-.08.3.44.44,0,0,1-.19.21l-.79.46a.17.17,0,0,1-.19,0,.25.25,0,0,1-.08-.2v-8.45a.67.67,0,0,1,.08-.29.56.56,0,0,1,.19-.21l.69-.4c.11-.07.19-.07.25,0a.81.81,0,0,1,.13.11l2.74,3.85V100.3a.67.67,0,0,1,.08-.3.49.49,0,0,1,.19-.21l.79-.46a.16.16,0,0,1,.19,0,.25.25,0,0,1,.08.2V108a.67.67,0,0,1-.08.29.49.49,0,0,1-.19.21Z" style="fill:#37474f"></path><path d="M187,96.74a3.6,3.6,0,0,1,1.26-.47,1.28,1.28,0,0,1,.89.21,1.61,1.61,0,0,1,.55.82,4.69,4.69,0,0,1,.23,1.36c0,.63,0,1.28,0,1.94a7.81,7.81,0,0,1-.23,1.62,5.85,5.85,0,0,1-.54,1.45,5.63,5.63,0,0,1-.88,1.23,5.38,5.38,0,0,1-1.23,1l-2.47,1.42a.14.14,0,0,1-.18,0,.23.23,0,0,1-.08-.21V98.65a.53.53,0,0,1,.08-.29.51.51,0,0,1,.18-.22Zm1.61,2.68a2.37,2.37,0,0,0-.12-.7.94.94,0,0,0-.3-.45.68.68,0,0,0-.51-.13,1.94,1.94,0,0,0-.73.27l-1.31.76v5.88l1.36-.79a2.94,2.94,0,0,0,.7-.55,2.85,2.85,0,0,0,.49-.7,3.31,3.31,0,0,0,.3-.8,4.05,4.05,0,0,0,.12-.85C188.68,100.7,188.68,100.06,188.65,99.42Z" style="fill:#37474f"></path></g></g></svg>