<svg xmlns="http://www.w3.org/2000/svg" viewBox="0 0 500 500"><g id="freepik--Floor--inject-4"><ellipse id="freepik--floor--inject-4" cx="250.59" cy="340.77" rx="232.98" ry="134.51" style="fill:#f5f5f5"></ellipse></g><g id="freepik--Shadows--inject-4"><path id="freepik--Shadow--inject-4" d="M37.45,349.55l152.18,87.9a5.19,5.19,0,0,0,4.73,0L448.14,290.93c1.31-.75,1.31-2,0-2.73L296,200.3a5.19,5.19,0,0,0-4.73,0L37.45,346.82C36.14,347.57,36.14,348.8,37.45,349.55Z" style="fill:#e6e6e6"></path><ellipse id="freepik--shadow--inject-4" cx="370.73" cy="380.2" rx="71.61" ry="41.34" style="fill:#e6e6e6"></ellipse></g><g id="freepik--Desk--inject-4"><g id="freepik--Table--inject-4"><path d="M178.52,310.59V410.78a2.86,2.86,0,0,0,1.3,2.25l2.76,1.6a2.9,2.9,0,0,0,2.6,0l2.76-1.6a2.86,2.86,0,0,0,1.3-2.25V310.59c0-.83-.58-1.16-1.3-.75l-2.76,1.6a2.9,2.9,0,0,1-2.6,0l-2.76-1.6C179.1,309.43,178.52,309.76,178.52,310.59Z" style="fill:#37474f"></path><path d="M185.18,414.63l2.76-1.6a2.86,2.86,0,0,0,1.3-2.25V310.59c0-.83-.58-1.16-1.3-.75l-2.76,1.6a2.86,2.86,0,0,0-1.3,2.25V413.88C183.88,414.71,184.46,415,185.18,414.63Z" style="fill:#455a64"></path><path d="M60.72,242.54V342.73A2.86,2.86,0,0,0,62,345l2.76,1.6a2.9,2.9,0,0,0,2.6,0l2.76-1.6a2.86,2.86,0,0,0,1.3-2.25V242.54c0-.83-.58-1.17-1.3-.75l-2.76,1.59a2.84,2.84,0,0,1-2.6,0L62,241.79C61.3,241.37,60.72,241.71,60.72,242.54Z" style="fill:#37474f"></path><path d="M67.38,346.58l2.76-1.6a2.86,2.86,0,0,0,1.3-2.25V242.54c0-.83-.58-1.17-1.3-.75l-2.76,1.59a2.87,2.87,0,0,0-1.3,2.25v100.2C66.08,346.65,66.66,347,67.38,346.58Z" style="fill:#455a64"></path><path d="M397.87,184V284.14a2.87,2.87,0,0,0,1.29,2.25l2.77,1.6a2.9,2.9,0,0,0,2.6,0l2.76-1.6a2.86,2.86,0,0,0,1.3-2.25V184c0-.83-.58-1.17-1.3-.75l-2.76,1.59a2.84,2.84,0,0,1-2.6,0l-2.77-1.59C398.45,182.78,397.87,183.12,397.87,184Z" style="fill:#37474f"></path><path d="M404.53,288l2.76-1.6a2.86,2.86,0,0,0,1.3-2.25V184c0-.83-.58-1.17-1.3-.75l-2.76,1.59a2.89,2.89,0,0,0-1.3,2.25v100.2C403.23,288.07,403.81,288.4,404.53,288Z" style="fill:#455a64"></path><g id="freepik--desk--inject-4"><path d="M35.09,251.7v-.95a5.21,5.21,0,0,1,2.36-4.09L291.23,100.14a5.19,5.19,0,0,1,4.73,0l127.8,73.8a5.25,5.25,0,0,1,2.36,4.1V179a5.25,5.25,0,0,1-2.36,4.1L170,329.6a5.25,5.25,0,0,1-4.73,0L37.45,255.79A5.21,5.21,0,0,1,35.09,251.7Z" style="fill:#FFAC5E"></path><g style="opacity:0.7000000000000001"><path d="M35.09,251.7v-.95a5.21,5.21,0,0,1,2.36-4.09L291.23,100.14a5.19,5.19,0,0,1,4.73,0l127.8,73.8a5.25,5.25,0,0,1,2.36,4.1V179a5.25,5.25,0,0,1-2.36,4.1L170,329.6a5.25,5.25,0,0,1-4.73,0L37.45,255.79A5.21,5.21,0,0,1,35.09,251.7Z" style="fill:#fff"></path></g><path d="M167.61,323.77v6.4a5.09,5.09,0,0,1-2.37-.56L37.45,255.8a5.24,5.24,0,0,1-2.36-4.1v-.94A5.22,5.22,0,0,1,37,247c-.86.73-.71,1.75.43,2.42L165.24,323.2A4.86,4.86,0,0,0,167.61,323.77Z" style="fill:#FFAC5E"></path><g style="opacity:0.6000000000000001"><path d="M167.61,323.77v6.4a5.09,5.09,0,0,1-2.37-.56L37.45,255.8a5.24,5.24,0,0,1-2.36-4.1v-.94A5.22,5.22,0,0,1,37,247c-.86.73-.71,1.75.43,2.42L165.24,323.2A4.86,4.86,0,0,0,167.61,323.77Z" style="fill:#fff"></path></g><path d="M37.45,249.39l127.8,73.81a5.25,5.25,0,0,0,4.73,0L423.76,176.67c1.3-.75,1.3-2,0-2.73L296,100.14a5.19,5.19,0,0,0-4.73,0L37.45,246.66C36.14,247.41,36.14,248.63,37.45,249.39Z" style="fill:#FFAC5E"></path><g style="opacity:0.8"><path d="M37.45,249.39l127.8,73.81a5.25,5.25,0,0,0,4.73,0L423.76,176.67c1.3-.75,1.3-2,0-2.73L296,100.14a5.19,5.19,0,0,0-4.73,0L37.45,246.66C36.14,247.41,36.14,248.63,37.45,249.39Z" style="fill:#fff"></path></g></g></g><g id="freepik--Keyboard--inject-4"><path id="freepik--shadow--inject-4" d="M185.47,243.09l23.18,13.42a2.85,2.85,0,0,0,2.59,0L279.73,217a.79.79,0,0,0,0-1.5l-23.18-13.42a2.87,2.87,0,0,0-2.6,0l-68.48,39.49A.79.79,0,0,0,185.47,243.09Z" style="opacity:0.05"></path><g id="freepik--keyboard--inject-4"><path d="M278.33,213.15a.91.91,0,0,0-.54-.75L256,199.83a2.84,2.84,0,0,0-2.6,0L187,238.26a.91.91,0,0,0-.54.75v2.28a.92.92,0,0,0,.54.75l21.77,12.57a2.9,2.9,0,0,0,2.6,0l66.46-38.37a.92.92,0,0,0,.54-.75Z" style="fill:#ebebeb"></path><path d="M208.73,252.27,187,239.76c-.72-.42-.72-1.09,0-1.5l66.45-38.43a2.84,2.84,0,0,1,2.6,0l21.78,12.57c.72.41.72,1.08,0,1.5l-66.46,38.37A2.9,2.9,0,0,1,208.73,252.27Z" style="fill:#fff"></path><path d="M209.94,252.58v2.33a2.68,2.68,0,0,1-1.22-.3L187,242a.92.92,0,0,1-.54-.75V239a.92.92,0,0,0,.54.75l21.76,12.52A2.69,2.69,0,0,0,209.94,252.58Z" style="fill:#e0e0e0"></path><path d="M210,250.37h0l-2.15-1.25,2.92-1.68,2.23,1.25-2.92,1.68Zm-3.38-2h0l-2.16-1.24,2.3-1.33,2.23,1.25-2.3,1.33Zm7.46-.41h0l-2.16-1.24,2.3-1.33,2.23,1.25-2.3,1.33Zm-10.83-1.54h0l-2.15-1.24,3.71-2.14,2.23,1.25-3.71,2.14Zm6.83-.05h-.05l-2.15-1.24,1.82-1,2.23,1.25-1.82,1Zm7.46-.41h-.05l-2.15-1.24,2.29-1.33,2.23,1.26L217.61,246Zm-4.47-1.31h-.05l-2.16-1.24,1.83-1.06,2.23,1.26-1.83,1Zm-13.19-.18s0,0,0,0l-2.16-1.24,2.93-1.69,2.23,1.25-2.93,1.69ZM221,244h0l-2.16-1.25,16.6-9.58,2.23,1.26L221.07,244Zm-12.88-.36h0L206,242.41l1.82-1.06,2.23,1.26-1.82,1Zm7.93-.68H216l-2.15-1.25,1.82-1.05,2.23,1.25L216.12,243Zm-19.55-.41h0l-2.15-1.25,1.82-1,2.23,1.25-1.82,1Zm7.46-.41H204l-2.15-1.25,1.82-1,2.23,1.25-1.82,1Zm7.15-.22h-.05l-2.16-1.25,1.83-1.05,2.23,1.25-1.83,1.05Zm7.93-.69H219L216.87,240,218.7,239l2.23,1.25-1.82,1.05Zm-19.55-.4h-.05l-2.16-1.24,1.83-1,2.23,1.25-1.82,1Zm7.46-.41h-.05l-2.16-1.24,1.83-1.06,2.23,1.26L207,240.44Zm7.14-.23h0L211.93,239l1.82-1.05,2.23,1.25-1.82,1.05Zm-21.68,0h0L190.24,239l2.3-1.33,2.23,1.26-2.3,1.32Zm29.61-.68H222l-2.15-1.24,1.82-1.06,2.23,1.26-1.82,1.05Zm-19.55-.4h0l-2.15-1.25,1.82-1.05,2.23,1.25-1.82,1.06Zm7.46-.41h-.05l-2.15-1.25,1.82-1.05,2.23,1.25L210,238.72Zm7.15-.23h-.05l-2.16-1.25,1.83-1,2.23,1.26-1.82,1.05Zm7.93-.68H225l-2.16-1.25,1.83-1.05,2.23,1.25-1.82,1.05Zm-27.85-.34h0L195,236.21l1.82-1.05,2.23,1.25-1.82,1.05Zm8.3-.07h-.05l-2.16-1.25,1.83-1.05,2.23,1.25-1.82,1.05ZM213,237s-.05,0-.05,0l-2.16-1.24,1.83-1.05,2.23,1.25L213,237Zm7.14-.22h0l-2.15-1.25,1.82-1,2.23,1.25-1.82,1Zm7.93-.69s0,0,0,0l-2.16-1.24,1.83-1.05,2.22,1.25-1.82,1.05Zm-27.84-.34s-.05,0-.05,0L198,234.49l1.82-1.05,2.23,1.25-1.82,1.05Zm8.29-.06s0,0,0,0l-2.16-1.24,1.83-1.06,2.22,1.26-1.82,1.05Zm7.46-.41h0L213.74,234l1.82-1.06,2.23,1.26L216,235.27Zm7.15-.23H223l-2.16-1.24,1.83-1.06,2.23,1.26-1.82,1Zm7.93-.68H231l-2.15-1.24,1.82-1.06,2.23,1.25-1.82,1.06ZM203.17,234h0L201,232.77l1.82-1.06L205,233,203.2,234Zm8.3-.06h-.05l-2.15-1.25,1.82-1,2.23,1.25-1.82,1Zm27.32-.19h0l-2.15-1.25,2.29-1.32,2.23,1.25-2.29,1.32Zm-19.86-.22h-.05l-2.16-1.25,1.83-1,2.23,1.25-1.82,1Zm7.14-.23h0l-2.16-1.25L225.7,231l2.22,1.25-1.82,1.06Zm7.93-.69H234l-2.15-1.25,1.83-1,2.22,1.25-1.82,1Zm-27.84-.34h0L204,231l1.82-1,2.23,1.25-1.82,1Zm8.3-.06h-.05L212.25,231l1.83-1,2.22,1.25-1.82,1Zm7.45-.41h0l-2.16-1.24,1.82-1,2.23,1.25-1.82,1Zm20.34,0h-.05l-2.15-1.24,2.29-1.33,2.23,1.25-2.29,1.33Zm-13.19-.18H229l-2.15-1.24,1.82-1.05,2.23,1.25-1.82,1.05Zm7.93-.68h-.05l-2.15-1.24,1.82-1,2.23,1.25-1.82,1Zm-19.55-.4h-.05l-2.15-1.24,1.82-1.06,2.23,1.26-1.82,1Zm7.46-.41h-.05l-2.15-1.24,1.82-1.06,2.23,1.26-1.82,1Zm7.14-.23h0l-2.16-1.24,1.83-1.06,2.22,1.26-1.82,1.05Zm-21.6-.05h0l-2.16-1.24,1.82-1.06,2.23,1.26-1.82,1Zm35.27,0h-.05l-2.16-1.25,2.3-1.32,2.23,1.25-2.3,1.32Zm-5.74-.58h0l-2.16-1.25,1.83-1.05,2.22,1.25L240,229.19Zm-19.54-.4h-.06l-2.15-1.25,1.83-1.05,2.23,1.25-1.83,1.05Zm7.45-.41h0l-2.16-1.25,1.83-1.05,2.22,1.25-1.82,1.05Zm7.15-.23H235l-2.15-1.25,1.82-1,2.23,1.25-1.82,1Zm-21.6-.05h-.05l-2.15-1.25,1.82-1.05,2.23,1.25-1.82,1.06Zm35.73-.32h0L247,226.53l2.92-1.69,2.23,1.25-2.92,1.69Zm-6.2-.32h-.05l-2.15-1.24,5.75-3.32,2.23,1.25L243,227.46Zm-19.55-.4h0l-2.15-1.24,1.82-1.05,2.23,1.25-1.82,1.05Zm7.46-.41h-.05l-2.15-1.24,1.82-1.05,2.23,1.25-1.82,1.05Zm7.14-.23h0l-2.16-1.24,1.83-1,2.23,1.25-1.83,1Zm-21.6,0h0l-2.16-1.24,1.82-1.05,2.23,1.25-1.82,1.05Zm10-1h-.05l-2.16-1.24L226,223l2.23,1.26-1.83,1.05Zm27.48-.28h0l-2.16-1.25,1.83-1.05,2.23,1.25-1.83,1.06Zm-20-.13h-.05l-2.16-1.24,1.83-1.06,2.22,1.25-1.82,1.06Zm7.14-.23H241l-2.15-1.24,1.66-1a.34.34,0,0,0,.19-.3.37.37,0,0,0-.2-.32l-2.83-1.63,2.14-1.24,5.61,3.2L241,224.7Zm-21.6,0h-.05l-2.15-1.24,1.82-1.06,2.23,1.26-1.82,1.05Zm10-1h0l-2.15-1.25,1.82-1.05,2.23,1.25-1.82,1.05Zm27.48-.29h-.05l-2.15-1.24,1.82-1.05,2.23,1.25-1.82,1.05Zm-20-.13h-.05L234.64,222l1.82-1,2.23,1.25-1.82,1Zm-13.16-1h0l-2.16-1.25,1.82-1,2.23,1.25-1.82,1Zm8.69-.29h-.05l-2.16-1.24,1.83-1,2.23,1.25-1.83,1Zm27.48-.28s-.05,0-.05,0l-2.16-1.24,1.83-1.06,2.23,1.26-1.83,1.05Zm-6.36-.22h-.05l-2.16-1.25,1.83-1,2.23,1.25-1.82,1Zm-26.82-.94h0l-2.16-1.24,1.83-1,2.23,1.25-1.82,1Zm8.68-.28h0l-2.15-1.24,3.24-1.87,2.23,1.25-3.24,1.87Zm28.11-.65h0l-2.15-1.25,4.81-2.78,2.23,1.26-4.81,2.77Zm-19.71-.31h-.05L241.55,218l1.83-1.05,2.22,1.25-1.82,1.05Zm-14.09-.48h0l-2.16-1.24,1.83-1.06,2.22,1.26-1.82,1Zm30.43-1.15h0l-2.16-1.25,1.83-1,2.23,1.25-1.82,1Zm-13.35-.09h-.05l-2.15-1.24,1.82-1.06,2.23,1.26-1.82,1.05Zm-6.36-.22h0L238.18,216l1.82-1,2.23,1.25-1.82,1Zm-7.74-.26h0l-2.15-1.25,1.82-1.05,2.23,1.25L232.67,217Zm36.79-.93h-.05l-2.15-1.25,1.82-1,2.23,1.25-1.82,1Zm-6.36-.23H263l-2.15-1.24,1.82-1,2.23,1.25-1.82,1Zm-13.34-.08h0l-2.16-1.25,1.83-1,2.23,1.25-1.83,1Zm7-.14h0l-2.15-1.25,1.82-1.05,2.23,1.25-1.82,1.06Zm-13.34-.09h-.05l-2.16-1.24,1.83-1.06,2.22,1.26-1.82,1Zm-7.08-.64s0,0,0,0l-2.16-1.24,1.83-1.06,2.22,1.26-1.82,1.05Zm36.13-.55h-.05l-5.53-3.19,1.82-1.05,5.61,3.2-1.82,1Zm-6.36-.22H266l-2.16-1.24,1.83-1.06,2.23,1.25-1.82,1.06Zm-6.36-.23h-.05l-2.16-1.25,1.83-1.05,2.23,1.25-1.82,1.05Zm-13.35-.08h0l-2.15-1.24,1.82-1.06,2.23,1.25-1.82,1.06Zm7-.14h-.05l-2.16-1.24,1.83-1.06,2.23,1.26-1.82,1.05Zm-14.07-.5h-.05l-2.15-1.25,1.82-1,2.23,1.25-1.82,1.06Zm23.41-1h0l-2.16-1.24,1.82-1.06,2.23,1.26-1.82,1.05Zm-6.35-.22h-.05l-2.16-1.25,1.83-1,2.22,1.25-1.82,1Zm-6.37-.23h0l-2.16-1.24,1.83-1,2.22,1.25-1.82,1Zm-7.7-.28h0l-2.16-1.24,1.83-1,2.23,1.25-1.83,1Zm23.41-1h-.05l-5.53-3.19,1.83-1.06,5.6,3.2-1.82,1Zm-6.36-.23h-.05L257.11,209l1.82-1,2.23,1.25-1.82,1ZM253,210h0l-2.15-1.24,1.82-1.06L254.8,209,253,210ZM245,208.87H245l-.93-.53,1.82-1.05,1,.54-1.81,1Zm10.94-.59h-.05L253.73,207l1.83-1.05,2.22,1.25L256,208.28ZM248,207.14h-.05l-.94-.52,1.83-1.06,1,.54-1.81,1Zm10.93-.58h-.05l-2.15-1.24,1.82-1.06,2.23,1.26L259,206.56Zm-8-1.14h-.05l-.93-.53,1.82-1,1,.54-1.82,1Zm3-1.72h-.05l-.94-.53,1.83-1,1,.54-1.81,1Z" style="fill:#FFAC5E"></path><path d="M210,250.37h0l-2.15-1.25,2.92-1.68,2.23,1.25-2.92,1.68Zm-3.38-2h0l-2.16-1.24,2.3-1.33,2.23,1.25-2.3,1.33Zm7.46-.41h0l-2.16-1.24,2.3-1.33,2.23,1.25-2.3,1.33Zm-10.83-1.54h0l-2.15-1.24,3.71-2.14,2.23,1.25-3.71,2.14Zm6.83-.05h-.05l-2.15-1.24,1.82-1,2.23,1.25-1.82,1Zm7.46-.41h-.05l-2.15-1.24,2.29-1.33,2.23,1.26L217.61,246Zm-4.47-1.31h-.05l-2.16-1.24,1.83-1.06,2.23,1.26-1.83,1Zm-13.19-.18s0,0,0,0l-2.16-1.24,2.93-1.69,2.23,1.25-2.93,1.69ZM221,244h0l-2.16-1.25,16.6-9.58,2.23,1.26L221.07,244Zm-12.88-.36h0L206,242.41l1.82-1.06,2.23,1.26-1.82,1Zm7.93-.68H216l-2.15-1.25,1.82-1.05,2.23,1.25L216.12,243Zm-19.55-.41h0l-2.15-1.25,1.82-1,2.23,1.25-1.82,1Zm7.46-.41H204l-2.15-1.25,1.82-1,2.23,1.25-1.82,1Zm7.15-.22h-.05l-2.16-1.25,1.83-1.05,2.23,1.25-1.83,1.05Zm7.93-.69H219L216.87,240,218.7,239l2.23,1.25-1.82,1.05Zm-19.55-.4h-.05l-2.16-1.24,1.83-1,2.23,1.25-1.82,1Zm7.46-.41h-.05l-2.16-1.24,1.83-1.06,2.23,1.26L207,240.44Zm7.14-.23h0L211.93,239l1.82-1.05,2.23,1.25-1.82,1.05Zm-21.68,0h0L190.24,239l2.3-1.33,2.23,1.26-2.3,1.32Zm29.61-.68H222l-2.15-1.24,1.82-1.06,2.23,1.26-1.82,1.05Zm-19.55-.4h0l-2.15-1.25,1.82-1.05,2.23,1.25-1.82,1.06Zm7.46-.41h-.05l-2.15-1.25,1.82-1.05,2.23,1.25L210,238.72Zm7.15-.23h-.05l-2.16-1.25,1.83-1,2.23,1.26-1.82,1.05Zm7.93-.68H225l-2.16-1.25,1.83-1.05,2.23,1.25-1.82,1.05Zm-27.85-.34h0L195,236.21l1.82-1.05,2.23,1.25-1.82,1.05Zm8.3-.07h-.05l-2.16-1.25,1.83-1.05,2.23,1.25-1.82,1.05ZM213,237s-.05,0-.05,0l-2.16-1.24,1.83-1.05,2.23,1.25L213,237Zm7.14-.22h0l-2.15-1.25,1.82-1,2.23,1.25-1.82,1Zm7.93-.69s0,0,0,0l-2.16-1.24,1.83-1.05,2.22,1.25-1.82,1.05Zm-27.84-.34s-.05,0-.05,0L198,234.49l1.82-1.05,2.23,1.25-1.82,1.05Zm8.29-.06s0,0,0,0l-2.16-1.24,1.83-1.06,2.22,1.26-1.82,1.05Zm7.46-.41h0L213.74,234l1.82-1.06,2.23,1.26L216,235.27Zm7.15-.23H223l-2.16-1.24,1.83-1.06,2.23,1.26-1.82,1Zm7.93-.68H231l-2.15-1.24,1.82-1.06,2.23,1.25-1.82,1.06ZM203.17,234h0L201,232.77l1.82-1.06L205,233,203.2,234Zm8.3-.06h-.05l-2.15-1.25,1.82-1,2.23,1.25-1.82,1Zm27.32-.19h0l-2.15-1.25,2.29-1.32,2.23,1.25-2.29,1.32Zm-19.86-.22h-.05l-2.16-1.25,1.83-1,2.23,1.25-1.82,1Zm7.14-.23h0l-2.16-1.25L225.7,231l2.22,1.25-1.82,1.06Zm7.93-.69H234l-2.15-1.25,1.83-1,2.22,1.25-1.82,1Zm-27.84-.34h0L204,231l1.82-1,2.23,1.25-1.82,1Zm8.3-.06h-.05L212.25,231l1.83-1,2.22,1.25-1.82,1Zm7.45-.41h0l-2.16-1.24,1.82-1,2.23,1.25-1.82,1Zm20.34,0h-.05l-2.15-1.24,2.29-1.33,2.23,1.25-2.29,1.33Zm-13.19-.18H229l-2.15-1.24,1.82-1.05,2.23,1.25-1.82,1.05Zm7.93-.68h-.05l-2.15-1.24,1.82-1,2.23,1.25-1.82,1Zm-19.55-.4h-.05l-2.15-1.24,1.82-1.06,2.23,1.26-1.82,1Zm7.46-.41h-.05l-2.15-1.24,1.82-1.06,2.23,1.26-1.82,1Zm7.14-.23h0l-2.16-1.24,1.83-1.06,2.22,1.26-1.82,1.05Zm-21.6-.05h0l-2.16-1.24,1.82-1.06,2.23,1.26-1.82,1Zm35.27,0h-.05l-2.16-1.25,2.3-1.32,2.23,1.25-2.3,1.32Zm-5.74-.58h0l-2.16-1.25,1.83-1.05,2.22,1.25L240,229.19Zm-19.54-.4h-.06l-2.15-1.25,1.83-1.05,2.23,1.25-1.83,1.05Zm7.45-.41h0l-2.16-1.25,1.83-1.05,2.22,1.25-1.82,1.05Zm7.15-.23H235l-2.15-1.25,1.82-1,2.23,1.25-1.82,1Zm-21.6-.05h-.05l-2.15-1.25,1.82-1.05,2.23,1.25-1.82,1.06Zm35.73-.32h0L247,226.53l2.92-1.69,2.23,1.25-2.92,1.69Zm-6.2-.32h-.05l-2.15-1.24,5.75-3.32,2.23,1.25L243,227.46Zm-19.55-.4h0l-2.15-1.24,1.82-1.05,2.23,1.25-1.82,1.05Zm7.46-.41h-.05l-2.15-1.24,1.82-1.05,2.23,1.25-1.82,1.05Zm7.14-.23h0l-2.16-1.24,1.83-1,2.23,1.25-1.83,1Zm-21.6,0h0l-2.16-1.24,1.82-1.05,2.23,1.25-1.82,1.05Zm10-1h-.05l-2.16-1.24L226,223l2.23,1.26-1.83,1.05Zm27.48-.28h0l-2.16-1.25,1.83-1.05,2.23,1.25-1.83,1.06Zm-20-.13h-.05l-2.16-1.24,1.83-1.06,2.22,1.25-1.82,1.06Zm7.14-.23H241l-2.15-1.24,1.66-1a.34.34,0,0,0,.19-.3.37.37,0,0,0-.2-.32l-2.83-1.63,2.14-1.24,5.61,3.2L241,224.7Zm-21.6,0h-.05l-2.15-1.24,1.82-1.06,2.23,1.26-1.82,1.05Zm10-1h0l-2.15-1.25,1.82-1.05,2.23,1.25-1.82,1.05Zm27.48-.29h-.05l-2.15-1.24,1.82-1.05,2.23,1.25-1.82,1.05Zm-20-.13h-.05L234.64,222l1.82-1,2.23,1.25-1.82,1Zm-13.16-1h0l-2.16-1.25,1.82-1,2.23,1.25-1.82,1Zm8.69-.29h-.05l-2.16-1.24,1.83-1,2.23,1.25-1.83,1Zm27.48-.28s-.05,0-.05,0l-2.16-1.24,1.83-1.06,2.23,1.26-1.83,1.05Zm-6.36-.22h-.05l-2.16-1.25,1.83-1,2.23,1.25-1.82,1Zm-26.82-.94h0l-2.16-1.24,1.83-1,2.23,1.25-1.82,1Zm8.68-.28h0l-2.15-1.24,3.24-1.87,2.23,1.25-3.24,1.87Zm28.11-.65h0l-2.15-1.25,4.81-2.78,2.23,1.26-4.81,2.77Zm-19.71-.31h-.05L241.55,218l1.83-1.05,2.22,1.25-1.82,1.05Zm-14.09-.48h0l-2.16-1.24,1.83-1.06,2.22,1.26-1.82,1Zm30.43-1.15h0l-2.16-1.25,1.83-1,2.23,1.25-1.82,1Zm-13.35-.09h-.05l-2.15-1.24,1.82-1.06,2.23,1.26-1.82,1.05Zm-6.36-.22h0L238.18,216l1.82-1,2.23,1.25-1.82,1Zm-7.74-.26h0l-2.15-1.25,1.82-1.05,2.23,1.25L232.67,217Zm36.79-.93h-.05l-2.15-1.25,1.82-1,2.23,1.25-1.82,1Zm-6.36-.23H263l-2.15-1.24,1.82-1,2.23,1.25-1.82,1Zm-13.34-.08h0l-2.16-1.25,1.83-1,2.23,1.25-1.83,1Zm7-.14h0l-2.15-1.25,1.82-1.05,2.23,1.25-1.82,1.06Zm-13.34-.09h-.05l-2.16-1.24,1.83-1.06,2.22,1.26-1.82,1Zm-7.08-.64s0,0,0,0l-2.16-1.24,1.83-1.06,2.22,1.26-1.82,1.05Zm36.13-.55h-.05l-5.53-3.19,1.82-1.05,5.61,3.2-1.82,1Zm-6.36-.22H266l-2.16-1.24,1.83-1.06,2.23,1.25-1.82,1.06Zm-6.36-.23h-.05l-2.16-1.25,1.83-1.05,2.23,1.25-1.82,1.05Zm-13.35-.08h0l-2.15-1.24,1.82-1.06,2.23,1.25-1.82,1.06Zm7-.14h-.05l-2.16-1.24,1.83-1.06,2.23,1.26-1.82,1.05Zm-14.07-.5h-.05l-2.15-1.25,1.82-1,2.23,1.25-1.82,1.06Zm23.41-1h0l-2.16-1.24,1.82-1.06,2.23,1.26-1.82,1.05Zm-6.35-.22h-.05l-2.16-1.25,1.83-1,2.22,1.25-1.82,1Zm-6.37-.23h0l-2.16-1.24,1.83-1,2.22,1.25-1.82,1Zm-7.7-.28h0l-2.16-1.24,1.83-1,2.23,1.25-1.83,1Zm23.41-1h-.05l-5.53-3.19,1.83-1.06,5.6,3.2-1.82,1Zm-6.36-.23h-.05L257.11,209l1.82-1,2.23,1.25-1.82,1ZM253,210h0l-2.15-1.24,1.82-1.06L254.8,209,253,210ZM245,208.87H245l-.93-.53,1.82-1.05,1,.54-1.81,1Zm10.94-.59h-.05L253.73,207l1.83-1.05,2.22,1.25L256,208.28ZM248,207.14h-.05l-.94-.52,1.83-1.06,1,.54-1.81,1Zm10.93-.58h-.05l-2.15-1.24,1.82-1.06,2.23,1.26L259,206.56Zm-8-1.14h-.05l-.93-.53,1.82-1,1,.54-1.82,1Zm3-1.72h-.05l-.94-.53,1.83-1,1,.54-1.81,1Z" style="opacity:0.5"></path></g></g><g id="freepik--PC--inject-4"><polygon id="freepik--shadow--inject-4" points="162.35 211.15 137.98 197.07 259.84 126.72 284.22 140.79 162.35 211.15" style="opacity:0.05"></polygon><g id="freepik--Monitor--inject-4"><path d="M235.93,190.81l17.4-10.06c1.79-1,2.69-2.39,2.69-3.75v-2.42l-20.93-11.86a3.85,3.85,0,0,1-1.74-3V138.26L203,155.82v21.46a3.86,3.86,0,0,0,1.73,3l18.25,10.53A14.36,14.36,0,0,0,235.93,190.81Z" style="fill:#e6e6e6"></path><path d="M210.26,181.07v2.41l-5.57-3.21a3.8,3.8,0,0,1-1.73-3V155.82l5.79-3.34c.12,1.47.25,3,.37,4.47l-4.06,2.36v16.76a3.82,3.82,0,0,0,1.73,3Z" style="fill:#e0e0e0"></path><path d="M205.06,176.07a3.82,3.82,0,0,0,1.73,3l16.14,9.32a14.38,14.38,0,0,0,13,0l17.4-10.06c3.59-2.07,3.59-5.43,0-7.5l-16.15-9.32a3.86,3.86,0,0,1-1.73-3V141.74l-30.39,17.57Z" style="fill:#f5f5f5"></path><path d="M240.71,163.55h0l-3.53-2a3.84,3.84,0,0,1-1.73-3V141.74l-30.39,17.57v16.76a3.82,3.82,0,0,0,1.73,3l3.47,2Z" style="fill:#ebebeb"></path><path d="M256,174.58V177c0,1.36-.9,2.71-2.69,3.75l-17.4,10.06a13,13,0,0,1-6.2,1.54v-2.41a13.14,13.14,0,0,0,6.2-1.54l17.4-10.07C255.12,177.3,256,175.94,256,174.58Z" style="fill:#ebebeb"></path><path d="M156.26,199.21a4.64,4.64,0,0,0,4.2-.08L278,131.28a4.8,4.8,0,0,0,2.16-3.75V24.65a4.65,4.65,0,0,0-2-3.67,4.62,4.62,0,0,0-4.19.08L156.4,88.91a4.8,4.8,0,0,0-2.17,3.75V195.54A4.65,4.65,0,0,0,156.26,199.21Z" style="fill:#455a64"></path><path d="M160.46,199.13,278,131.28a4.77,4.77,0,0,0,2.16-3.75V24.65c0-1.38-1-1.94-2.16-1.25L160.46,91.26A4.78,4.78,0,0,0,158.29,95V197.88C158.29,199.26,159.26,199.82,160.46,199.13Z" style="fill:#FFAC5E"></path><path d="M160.46,199.13,278,131.28a4.77,4.77,0,0,0,2.16-3.75V24.65c0-1.38-1-1.94-2.16-1.25L160.46,91.26A4.78,4.78,0,0,0,158.29,95V197.88C158.29,199.26,159.26,199.82,160.46,199.13Z" style="fill:#37474f"></path><path d="M160.14,199.3a4,4,0,0,1-5.91-3.77V184l4.06,2.35v11.57C158.29,199.15,159.09,199.72,160.14,199.3Z" style="fill:#e0e0e0"></path><path d="M158.29,186.31v11.57c0,1.38,1,1.94,2.17,1.25L278,131.28a4.77,4.77,0,0,0,2.16-3.75V116Z" style="fill:#fff"></path><path d="M162.35,177.78V96.36a2.88,2.88,0,0,1,1.3-2.25L274.79,29.94c.72-.41,1.3-.08,1.3.75v81.42a2.86,2.86,0,0,1-1.3,2.25L163.65,178.53C162.93,178.94,162.35,178.61,162.35,177.78Z" style="fill:#FFAC5E"></path><path d="M162.35,177.78V96.36a2.88,2.88,0,0,1,1.3-2.25L274.79,29.94c.72-.41,1.3-.08,1.3.75v81.42a2.86,2.86,0,0,1-1.3,2.25L163.65,178.53C162.93,178.94,162.35,178.61,162.35,177.78Z" style="fill:#fff;opacity:0.5"></path><path d="M168.93,95.68l98.95-57.13c.72-.42,1.3-.08,1.3.75v72.05a2.84,2.84,0,0,1-1.3,2.24l-98.95,57.14c-.72.41-1.3.07-1.3-.75v-72A2.86,2.86,0,0,1,168.93,95.68Z" style="fill:#455a64"></path><path d="M171.69,104.83v45.3c0,.28.19.39.43.25l7.26-4.19a1,1,0,0,0,.43-.75v-45.3c0-.27-.19-.39-.43-.25l-7.26,4.19A1,1,0,0,0,171.69,104.83Z" style="fill:#263238"></path><path d="M172.7,105.9l2.4-1.38c.17-.11.32,0,.32.18v2.77a.7.7,0,0,1-.32.56l-2.4,1.39c-.18.1-.32,0-.32-.19v-2.77A.71.71,0,0,1,172.7,105.9Z" style="fill:#37474f"></path><path d="M176.41,103.76l2.39-1.38c.18-.11.33,0,.33.19v2.76a.74.74,0,0,1-.33.57l-2.39,1.38c-.18.1-.33,0-.33-.19v-2.77A.72.72,0,0,1,176.41,103.76Z" style="fill:#37474f"></path><path d="M172.7,110.1l2.4-1.38c.17-.11.32,0,.32.18v2.77a.7.7,0,0,1-.32.56l-2.4,1.39c-.18.1-.32,0-.32-.19v-2.77A.7.7,0,0,1,172.7,110.1Z" style="fill:#37474f"></path><path d="M176.41,108l2.39-1.38c.18-.11.33,0,.33.18v2.77a.71.71,0,0,1-.33.56l-2.39,1.39c-.18.1-.33,0-.33-.19v-2.77A.72.72,0,0,1,176.41,108Z" style="fill:#37474f"></path><path d="M172.7,114.3l2.4-1.39c.17-.1.32,0,.32.19v2.77a.7.7,0,0,1-.32.56l-2.4,1.38c-.18.11-.32,0-.32-.18v-2.77A.7.7,0,0,1,172.7,114.3Z" style="fill:#37474f"></path><path d="M176.41,112.16l2.39-1.39c.18-.1.33,0,.33.19v2.77a.71.71,0,0,1-.33.56l-2.39,1.39c-.18.1-.33,0-.33-.19v-2.77A.71.71,0,0,1,176.41,112.16Z" style="fill:#37474f"></path><path d="M172.7,118.5l2.4-1.39c.17-.1.32,0,.32.19v2.77a.71.71,0,0,1-.32.56L172.7,122c-.18.11-.32,0-.32-.18v-2.77A.7.7,0,0,1,172.7,118.5Z" style="fill:#37474f"></path><path d="M176.41,116.36,178.8,115c.18-.1.33,0,.33.19v2.77a.72.72,0,0,1-.33.56l-2.39,1.38c-.18.11-.33,0-.33-.18v-2.77A.71.71,0,0,1,176.41,116.36Z" style="fill:#37474f"></path><path d="M172.7,122.69l2.4-1.38c.17-.1.32,0,.32.19v2.76a.73.73,0,0,1-.32.57l-2.4,1.38c-.18.1-.32,0-.32-.19v-2.76A.73.73,0,0,1,172.7,122.69Z" style="fill:#37474f"></path><path d="M176.41,120.55l2.39-1.38c.18-.1.33,0,.33.19v2.77a.74.74,0,0,1-.33.56l-2.39,1.38c-.18.11-.33,0-.33-.19v-2.76A.74.74,0,0,1,176.41,120.55Z" style="fill:#37474f"></path><path d="M172.7,126.89l2.4-1.38c.17-.11.32,0,.32.19v2.76a.73.73,0,0,1-.32.57l-2.4,1.38c-.18.1-.32,0-.32-.19v-2.77A.73.73,0,0,1,172.7,126.89Z" style="fill:#37474f"></path><path d="M176.41,124.75l2.39-1.38c.18-.1.33,0,.33.19v2.76a.74.74,0,0,1-.33.57l-2.39,1.38c-.18.1-.33,0-.33-.19v-2.76A.74.74,0,0,1,176.41,124.75Z" style="fill:#37474f"></path><path d="M172.7,131.09l2.4-1.38c.17-.11.32,0,.32.18v2.77a.7.7,0,0,1-.32.56l-2.4,1.39c-.18.1-.32,0-.32-.19v-2.77A.71.71,0,0,1,172.7,131.09Z" style="fill:#37474f"></path><path d="M176.41,129l2.39-1.38c.18-.11.33,0,.33.19v2.76a.71.71,0,0,1-.33.56l-2.39,1.39c-.18.1-.33,0-.33-.19v-2.77A.72.72,0,0,1,176.41,129Z" style="fill:#37474f"></path><path d="M172.7,135.29l2.4-1.38c.17-.11.32,0,.32.18v2.77a.7.7,0,0,1-.32.56l-2.4,1.39c-.18.1-.32,0-.32-.19v-2.77A.7.7,0,0,1,172.7,135.29Z" style="fill:#37474f"></path><path d="M176.41,133.15l2.39-1.38c.18-.11.33,0,.33.18v2.77a.71.71,0,0,1-.33.56l-2.39,1.39c-.18.1-.33,0-.33-.19v-2.77A.71.71,0,0,1,176.41,133.15Z" style="fill:#37474f"></path><path d="M172.86,140.55l3.57-2.06c.27-.16.49,0,.49.28v4.12a1.06,1.06,0,0,1-.49.84l-3.57,2.07c-.27.15-.48,0-.48-.28v-4.13A1.05,1.05,0,0,1,172.86,140.55Z" style="fill:#e0e0e0"></path><path d="M178.44,141.25v3.39a.37.37,0,0,1-.11.19l-2.93,1.69v-3.38a.37.37,0,0,1,.11-.19l2.93-1.7m.48-1.08a.45.45,0,0,0-.21.06l-3.58,2.07a1.05,1.05,0,0,0-.48.84v4.12c0,.22.11.35.26.35a.4.4,0,0,0,.22-.07l3.58-2.06a1.08,1.08,0,0,0,.48-.84v-4.13c0-.22-.11-.34-.27-.34Z" style="fill:#455a64"></path><path d="M186,103.39l56.6-32.68c1.2-.69,2.17-.13,2.17,1.25v41.93a4.78,4.78,0,0,1-2.17,3.75L186,150.29c-1.19.69-2.16.13-2.16-1.25v-41.9A4.8,4.8,0,0,1,186,103.39Z" style="fill:#37474f"></path><path d="M269.18,39.29c0-.82-.59-1.15-1.3-.74L168.93,95.68a2.86,2.86,0,0,0-1.3,2.25v5.53L269.18,44.83Z" style="fill:#37474f"></path><path d="M219.22,155.82a4.51,4.51,0,0,0-2,3.52c0,1.3.91,1.82,2,1.18a4.51,4.51,0,0,0,2-3.52C221.25,155.7,220.34,155.18,219.22,155.82Z" style="fill:#455a64"></path><path d="M158.93,92.86a4.67,4.67,0,0,0-.64,2.15v91.31L154.23,184V92.66a4.51,4.51,0,0,1,.64-2.14Z" style="fill:#263238"></path></g></g><g id="freepik--Tablet--inject-4"><path id="freepik--shadow--inject-4" d="M266.55,194.92l52.52-30.33a2,2,0,0,1,1.78,0l31.64,18.27c.49.28.49.74,0,1L300,214.21a2,2,0,0,1-1.78,0l-31.63-18.27C266.05,195.66,266.05,195.2,266.55,194.92Z" style="opacity:0.05"></path><g id="freepik--tablet--inject-4"><path d="M267.41,191.65l51.08-29.49a2,2,0,0,1,1.73,0L351,179.92a1.92,1.92,0,0,1,.87,1.5v.35a1.92,1.92,0,0,1-.87,1.5l-51.07,29.49a2,2,0,0,1-1.73,0L267.41,195a1.91,1.91,0,0,1-.86-1.5v-.35A1.94,1.94,0,0,1,267.41,191.65Z" style="fill:#FFAC5E"></path><path d="M267.41,191.65l51.08-29.49a2,2,0,0,1,1.73,0L351,179.92c.48.28.48.73,0,1l-51.07,29.49a1.89,1.89,0,0,1-1.73,0l-30.77-17.76A.53.53,0,0,1,267.41,191.65Z" style="fill:#FFAC5E"></path><g style="opacity:0.2"><path d="M267.41,191.65l51.08-29.49a2,2,0,0,1,1.73,0L351,179.92c.48.28.48.73,0,1l-51.07,29.49a1.89,1.89,0,0,1-1.73,0l-30.77-17.76A.53.53,0,0,1,267.41,191.65Z"></path></g><path d="M318.48,166.86a1.94,1.94,0,0,1,1.74,0c3.81,2.17,18.86,10.89,22.64,13.08.48.27.48.72,0,1-5,2.87-29.88,17.23-34.83,20.1a1.92,1.92,0,0,1-1.73,0L283.66,188c-.48-.27-.48-.72,0-1Z" style="fill:#455a64"></path><path d="M286.86,196c-1.52.87-1.52,2.3,0,3.18a6.12,6.12,0,0,0,5.5,0c1.53-.88,1.53-2.31,0-3.18A6.06,6.06,0,0,0,286.86,196Z" style="fill:#37474f"></path><path d="M295.41,199.3l-2.47,1.44c-.71.41-.84,1-.28,1.34a2.59,2.59,0,0,0,2.31-.17l2.48-1.44c.71-.41.84-1,.28-1.33A2.57,2.57,0,0,0,295.41,199.3Z" style="fill:#37474f"></path><path d="M298.3,201l-2.47,1.44c-.72.42-.85,1-.29,1.34a2.61,2.61,0,0,0,2.32-.17l2.47-1.44c.72-.41.85-1,.28-1.33A2.58,2.58,0,0,0,298.3,201Z" style="fill:#37474f"></path><path d="M301.18,202.64l-2.47,1.44c-.71.42-.84,1-.28,1.34a2.61,2.61,0,0,0,2.31-.16l2.47-1.45c.72-.41.85-1,.29-1.33A2.64,2.64,0,0,0,301.18,202.64Z" style="fill:#37474f"></path><path d="M278.83,189.77l-2.47,1.44c-.72.41-.85,1-.28,1.33a2.58,2.58,0,0,0,2.31-.16l2.47-1.44c.72-.42.85-1,.29-1.34A2.61,2.61,0,0,0,278.83,189.77Z" style="fill:#37474f"></path><path d="M281.72,191.44l-2.48,1.44c-.71.41-.84,1-.28,1.33a2.57,2.57,0,0,0,2.32-.16l2.47-1.44c.71-.41.84-1,.28-1.34A2.59,2.59,0,0,0,281.72,191.44Z" style="fill:#37474f"></path><path d="M284.6,193.11l-2.47,1.44c-.72.41-.85,1-.28,1.34a2.59,2.59,0,0,0,2.31-.17l2.47-1.44c.72-.41.85-1,.29-1.33A2.6,2.6,0,0,0,284.6,193.11Z" style="fill:#37474f"></path><g style="opacity:0.30000000000000004"><path d="M299,210.62V213a1.89,1.89,0,0,1-.87-.2L267.41,195a1.89,1.89,0,0,1-.87-1.5v-.34a1.94,1.94,0,0,1,.71-1.39c-.31.27-.26.64.16.89l30.76,17.76A1.75,1.75,0,0,0,299,210.62Z"></path></g><g style="opacity:0.5"><path d="M351.85,181.42v.35a1.92,1.92,0,0,1-.87,1.5l-51.07,29.49a1.75,1.75,0,0,1-.87.2v-2.34a1.75,1.75,0,0,0,.87-.21L351,180.92c.42-.24.47-.61.16-.89A2,2,0,0,1,351.85,181.42Z"></path></g></g></g><g id="freepik--Palettes--inject-4"><path id="freepik--shadow--inject-4" d="M338.06,128.82a.82.82,0,0,0-.62-.39l-44-6.82h-.18a.85.85,0,0,0-.8.45l-1.9,4.1-2.36,2.35a.62.62,0,0,0-.14.23l-1.31.76a.69.69,0,0,0-.36.58.68.68,0,0,0,.36.58L319,149.26a1,1,0,0,0,.5.13,1,1,0,0,0,.51-.13l6.67-3.85a.67.67,0,0,0,.36-.58.66.66,0,0,0-.36-.58l-7.84-4.53,9.18,3.06a1.21,1.21,0,0,0,.34.05.93.93,0,0,0,.66-.25l4.72-4.72a.62.62,0,0,0,.18-.6.71.71,0,0,0-.5-.51L323,133.27l11.71,1.81.17,0a.85.85,0,0,0,.8-.45l2.44-5.26A.67.67,0,0,0,338.06,128.82Z" style="opacity:0.05"></path><g id="freepik--Palette--inject-4"><path d="M326.5,142.88a.18.18,0,0,0-.11-.15l-32.23-18.61a.52.52,0,0,0-.51,0L287,128a.18.18,0,0,0-.11.15v1a.19.19,0,0,0,.11.15l32.24,18.61a.57.57,0,0,0,.51,0l6.67-3.86c.07,0,.11-.09.11-.14Z" style="fill:#37474f"></path><path d="M319.46,146.94v1a.51.51,0,0,1-.25-.06L287,129.26a.17.17,0,0,1-.1-.14v-1c0,.06,0,.1.1.14l32.24,18.61A.49.49,0,0,0,319.46,146.94Z" style="fill:#263238"></path><path d="M294.16,124.12l32.23,18.61a.15.15,0,0,1,0,.29l-6.67,3.86a.57.57,0,0,1-.51,0L287,128.27c-.14-.09-.14-.22,0-.3l6.68-3.85A.52.52,0,0,1,294.16,124.12Z" style="fill:#455a64"></path><polygon points="293.9 125.81 289.91 128.12 293.9 130.42 297.9 128.12 293.9 125.81" style="fill:#ffa8a7"></polygon><polygon points="304.13 131.72 300.13 134.02 304.13 136.33 308.12 134.02 304.13 131.72" style="fill:#ffa8a7"></polygon><polygon points="304.13 131.72 300.13 134.02 304.13 136.33 308.12 134.02 304.13 131.72" style="fill:#f0f0f0;opacity:0.7000000000000001"></polygon><polygon points="309.24 134.67 305.25 136.97 309.24 139.28 313.23 136.97 309.24 134.67" style="fill:#ffa8a7"></polygon><polygon points="309.24 134.67 305.25 136.97 309.24 139.28 313.23 136.97 309.24 134.67" style="fill:#f0f0f0;opacity:0.6000000000000001"></polygon><polygon points="314.35 137.62 310.36 139.92 314.35 142.23 318.34 139.92 314.35 137.62" style="fill:#ffa8a7"></polygon><polygon points="314.35 137.62 310.36 139.92 314.35 142.23 318.34 139.92 314.35 137.62" style="fill:#f0f0f0;opacity:0.8"></polygon><polygon points="319.46 140.57 315.47 142.87 319.46 145.18 323.45 142.88 319.46 140.57" style="fill:#ffa8a7"></polygon><polygon points="319.46 140.57 315.47 142.87 319.46 145.18 323.45 142.88 319.46 140.57" style="fill:#f0f0f0"></polygon><polygon points="299.01 128.76 295.02 131.07 299.01 133.38 303.01 131.07 299.01 128.76" style="fill:#ffa8a7"></polygon><polygon points="299.01 128.76 295.02 131.07 299.01 133.38 303.01 131.07 299.01 128.76" style="fill:#f0f0f0;opacity:0.6000000000000001"></polygon><path d="M294.31,125.27a.89.89,0,0,1-.81,0c-.23-.13-.23-.34,0-.47a.89.89,0,0,1,.81,0A.25.25,0,0,1,294.31,125.27Z" style="fill:#263238"></path></g><g id="freepik--palette--inject-4"><path d="M333.4,135.45c0-.07-.07-.14-.18-.18l-39.48-13.16a.53.53,0,0,0-.5.07l-4.72,4.72a.21.21,0,0,0,0,.11v1c0,.08.07.15.18.19l39.49,13.16a.52.52,0,0,0,.49-.08l4.72-4.72a.16.16,0,0,0,0-.1Z" style="fill:#37474f"></path><path d="M328.42,140.36v1a.67.67,0,0,1-.28,0l-39.48-13.16c-.12,0-.19-.11-.18-.19v-1c0,.07.07.14.18.18l39.48,13.16A.45.45,0,0,0,328.42,140.36Z" style="fill:#263238"></path><path d="M293.74,122.11l39.48,13.16c.17.06.23.18.13.28l-4.72,4.72a.52.52,0,0,1-.49.08l-39.49-13.16c-.17-.06-.23-.19-.13-.29l4.72-4.72A.53.53,0,0,1,293.74,122.11Z" style="fill:#455a64"></path><polygon points="294.25 123.78 291.43 126.61 296.32 128.24 299.14 125.42 294.25 123.78" style="fill:#FFAC5E"></polygon><polygon points="306.77 127.96 303.95 130.78 308.84 132.41 311.66 129.59 306.77 127.96" style="fill:#FFAC5E"></polygon><polygon points="306.77 127.96 303.95 130.78 308.84 132.41 311.66 129.59 306.77 127.96" style="opacity:0.25"></polygon><polygon points="313.03 130.04 310.21 132.87 315.1 134.5 317.92 131.68 313.03 130.04" style="fill:#FFAC5E"></polygon><polygon points="313.03 130.04 310.21 132.87 315.1 134.5 317.92 131.68 313.03 130.04" style="opacity:0.35000000000000003"></polygon><polygon points="319.29 132.13 316.47 134.96 321.36 136.59 324.18 133.76 319.29 132.13" style="fill:#FFAC5E"></polygon><polygon points="319.29 132.13 316.47 134.96 321.36 136.59 324.18 133.76 319.29 132.13" style="opacity:0.35000000000000003"></polygon><polygon points="325.55 134.22 322.73 137.04 327.62 138.67 330.44 135.85 325.55 134.22" style="fill:#FFAC5E"></polygon><polygon points="325.55 134.22 322.73 137.04 327.62 138.67 330.44 135.85 325.55 134.22" style="opacity:0.5"></polygon><polygon points="300.51 125.87 297.69 128.69 302.58 130.32 305.4 127.5 300.51 125.87" style="fill:#FFAC5E"></polygon><polygon points="300.51 125.87 297.69 128.69 302.58 130.32 305.4 127.5 300.51 125.87" style="opacity:0.15"></polygon><path d="M294.4,123.2a.83.83,0,0,1-.78.12c-.28-.09-.37-.29-.21-.45a.82.82,0,0,1,.78-.12C294.46,122.84,294.56,123,294.4,123.2Z" style="fill:#263238"></path></g><g id="freepik--palette--inject-4"><path d="M337.63,127.17c0-.1-.11-.18-.27-.2l-44-6.82a.47.47,0,0,0-.45.15l-2.44,5.27a.09.09,0,0,0,0,.05v1c0,.09.1.18.27.2l44,6.82a.43.43,0,0,0,.44-.15l2.45-5.27a.11.11,0,0,0,0-.05Z" style="fill:#37474f"></path><path d="M335,132.63v1a.54.54,0,0,1-.22,0l-44-6.81c-.16,0-.27-.11-.27-.2v-1c0,.09.11.17.27.2l44,6.81Z" style="fill:#263238"></path><path d="M293.33,120.15l44,6.82c.19,0,.31.14.26.25l-2.45,5.27a.43.43,0,0,1-.44.15l-44-6.82c-.2,0-.31-.14-.26-.25l2.44-5.27A.47.47,0,0,1,293.33,120.15Z" style="fill:#455a64"></path><polygon points="294.58 121.7 293.12 124.85 298.57 125.69 300.03 122.54 294.58 121.7" style="fill:#FFAC5E"></polygon><polygon points="308.54 123.86 307.08 127.01 312.54 127.85 314 124.7 308.54 123.86" style="fill:#FFAC5E"></polygon><polygon points="308.54 123.86 307.08 127.01 312.54 127.85 314 124.7 308.54 123.86" style="fill:#fff;opacity:0.7000000000000001"></polygon><polygon points="315.52 124.94 314.06 128.09 319.52 128.93 320.98 125.78 315.52 124.94" style="fill:#FFAC5E"></polygon><polygon points="315.52 124.94 314.06 128.09 319.52 128.93 320.98 125.78 315.52 124.94" style="fill:#fff;opacity:0.6000000000000001"></polygon><polygon points="322.51 126.02 321.05 129.17 326.5 130.01 327.96 126.86 322.51 126.02" style="fill:#FFAC5E"></polygon><polygon points="322.51 126.02 321.05 129.17 326.5 130.01 327.96 126.86 322.51 126.02" style="fill:#fff;opacity:0.8"></polygon><polygon points="329.49 127.1 328.03 130.25 333.48 131.09 334.94 127.94 329.49 127.1" style="fill:#FFAC5E"></polygon><polygon points="329.49 127.1 328.03 130.25 333.48 131.09 334.94 127.94 329.49 127.1" style="fill:#fff"></polygon><polygon points="301.56 122.78 300.1 125.93 305.55 126.77 307.01 123.62 301.56 122.78" style="fill:#FFAC5E"></polygon><polygon points="301.56 122.78 300.1 125.93 305.55 126.77 307.01 123.62 301.56 122.78" style="fill:#fff;opacity:0.6000000000000001"></polygon><path d="M294.46,121.11a.69.69,0,0,1-.71.23c-.3,0-.48-.22-.4-.4a.67.67,0,0,1,.7-.23C294.36,120.75,294.54,120.93,294.46,121.11Z" style="fill:#263238"></path></g></g><g id="freepik--Printer--inject-4"><path id="freepik--shadow--inject-4" d="M160,238l-44.93-26a2.9,2.9,0,0,0-2.6,0L48.59,249a.79.79,0,0,0,0,1.5l44.86,25.95a2.84,2.84,0,0,0,2.6,0l10.41-6a2.82,2.82,0,0,1,2.59,0l15.43,8.91a2.82,2.82,0,0,0,2.59,0l32.57-18.84a.8.8,0,0,0,0-1.51l-15.34-8.91a.79.79,0,0,1,0-1.5l15.7-9.07C160.72,239.13,160.72,238.46,160,238Z" style="opacity:0.05"></path><g id="freepik--printer--inject-4"><path d="M96.9,273.28l57.75-33.34a5.24,5.24,0,0,0,2.38-4.12V215.53a5.26,5.26,0,0,0-2.38-4.12l-39.89-23a5.25,5.25,0,0,0-4.76,0L52.24,221.72a5.28,5.28,0,0,0-2.38,4.13v20.28a5.27,5.27,0,0,0,2.38,4.12l39.9,23A5.25,5.25,0,0,0,96.9,273.28Z" style="fill:#FFAC5E"></path><path d="M94.52,271.91V251.63a5.28,5.28,0,0,0-2.38-4.13l-39.9-23c-1.31-.76-2.38-.14-2.38,1.38v20.28a5.27,5.27,0,0,0,2.38,4.12l39.9,23C93.45,274,94.52,273.43,94.52,271.91Z" style="opacity:0.45"></path><path d="M155.93,212.59,93.42,248.67a4.36,4.36,0,0,0-1.28-1.16l-39.89-23c-1.19-.7-2.17-.26-2.35.94a5.26,5.26,0,0,1,2.35-3.69L110,188.38a5.19,5.19,0,0,1,4.76,0l39.89,23A4.45,4.45,0,0,1,155.93,212.59Z" style="fill:#FFAC5E"></path><path d="M155.93,212.59,93.42,248.67a4.36,4.36,0,0,0-1.28-1.16l-39.89-23c-1.19-.7-2.17-.26-2.35.94a5.26,5.26,0,0,1,2.35-3.69L110,188.38a5.19,5.19,0,0,1,4.76,0l39.89,23A4.45,4.45,0,0,1,155.93,212.59Z" style="opacity:0.35000000000000003"></path><path d="M157,215.53v20.29a5.22,5.22,0,0,1-2.38,4.12L96.9,273.28a5.28,5.28,0,0,1-4.4.17c1.14.47,2-.17,2-1.55V251.63a5.15,5.15,0,0,0-1.1-3l62.51-36.08A5.08,5.08,0,0,1,157,215.53Z" style="opacity:0.55"></path><path d="M74.09,226.77l27,15.58a4.76,4.76,0,0,1,2.38,4.12v5.37c0,1.21.85,1.7,1.9,1.09l40.85-23.58a4.19,4.19,0,0,0,1.9-3.3v-5.36a4.76,4.76,0,0,0-2.38-4.12l-27-15.58a4.26,4.26,0,0,0-3.81,0L74.09,224.58A1.16,1.16,0,0,0,74.09,226.77Z" style="fill:#FFAC5E;opacity:0.8"></path><polygon points="103.45 264.35 103.45 261.77 148.1 235.99 148.1 238.56 103.45 264.35" style="fill:#e0e0e0"></polygon><polygon points="103.45 264.35 103.45 261.77 148.1 235.99 148.1 238.56 103.45 264.35" style="fill:#FFAC5E"></polygon><polygon points="103.45 264.35 103.45 261.77 148.1 235.99 148.1 238.56 103.45 264.35" style="opacity:0.8"></polygon><path d="M106.79,262.42l18,10.41a2.14,2.14,0,0,0,1.91,0l33.82-19.53a1.23,1.23,0,0,0,0-2.39l-18-10.42-35.72,20.63Z" style="fill:#e0e0e0"></path><path d="M161.5,252.1a1.85,1.85,0,0,1-.95,1.21l-33.82,19.51a1.86,1.86,0,0,1-1,.24v-1.29a1.89,1.89,0,0,0,1-.24L160.55,252a.59.59,0,0,0,0-1.11A1.81,1.81,0,0,1,161.5,252.1Z" style="fill:#ebebeb"></path><path d="M124.82,271.53a2.14,2.14,0,0,0,1.91,0L160.55,252a.58.58,0,0,0,0-1.1l-18-10.42-35.72,20.63Z" style="fill:#fff"></path><polygon points="63.26 220.52 107.91 194.74 110.1 196 65.45 221.78 63.26 220.52" style="fill:#e0e0e0"></polygon><polygon points="63.26 220.52 107.91 194.74 110.1 196 65.45 221.78 63.26 220.52" style="fill:#FFAC5E"></polygon><polygon points="63.26 220.52 107.91 194.74 110.1 196 65.45 221.78 63.26 220.52" style="opacity:0.8"></polygon><polygon points="63.26 220.52 61.19 211.37 105.84 185.59 107.91 194.74 63.26 220.52" style="fill:#e0e0e0"></polygon><polygon points="64.3 221.13 62.23 211.98 106.88 186.2 108.95 195.35 64.3 221.13" style="fill:#FFAC5E"></polygon><polygon points="64.3 221.13 62.23 211.98 106.88 186.2 108.95 195.35 64.3 221.13" style="opacity:0.55"></polygon><polygon points="62.23 211.98 61.19 211.37 63.26 220.52 64.3 221.13 62.23 211.98" style="fill:#FFAC5E"></polygon><polygon points="62.23 211.98 61.19 211.37 63.26 220.52 64.3 221.13 62.23 211.98" style="opacity:0.45"></polygon><polygon points="61.19 211.37 62.23 211.98 106.88 186.2 105.84 185.59 61.19 211.37" style="fill:#FFAC5E"></polygon><polygon points="61.19 211.37 62.23 211.98 106.88 186.2 105.84 185.59 61.19 211.37" style="opacity:0.35000000000000003"></polygon><path d="M107.91,220.52c-2.46,1.42-2.46,3.75,0,5.2a9.88,9.88,0,0,0,9,0c2.49-1.44,2.49-3.76,0-5.2A9.88,9.88,0,0,0,107.91,220.52Z" style="fill:#f0f0f0"></path></g></g><g id="freepik--Pencil--inject-4"><polygon id="freepik--shadow--inject-4" points="174.27 225.79 177.34 227.57 201.54 213.4 204.21 210.25 198.64 211.72 174.27 225.79" style="fill:#455a64;opacity:0.1"></polygon><path d="M198.86,209.57l5.16-1a.16.16,0,0,1,.15.26l-3.5,4Z" style="fill:#ffa8a7"></path><path d="M204.17,208.82a.16.16,0,0,0-.15-.26l-1,.19h0a.92.92,0,0,1,.42.83v.09Z" style="fill:#263238"></path><path d="M181.45,223.81l.42-.25.51-.29,18.29-10.49a2.36,2.36,0,0,0-.14-1.71,2.42,2.42,0,0,0-1.67-1.5l-18.28,10.49-1,.55C180.26,220.29,182.09,223.47,181.45,223.81Z" style="fill:#FFAC5E"></path><path d="M183.05,222.89l.95-.54c.27-.15.11-.83-.21-1.54-.43-.94-1.28-1.85-1.65-1.65l-.69.4-.25.14c.37-.19,1.22.72,1.65,1.66.31.67.47,1.33.23,1.51h0Z" style="fill:#ebebeb"></path><path d="M183.29,222.75c.64-.34-1.21-3.53-1.85-3.18l-.95.54c.65-.35,2.5,2.84,1.85,3.18Z" style="fill:#FFAC5E"></path><path d="M181.45,223.81l.93-.54c.63-.33-1.13-3.42-1.8-3.21h0l-.93.54C180.26,220.29,182.09,223.47,181.45,223.81Z" style="fill:#ebebeb"></path><path d="M204.19,208.65l-.17-.09-3.74,2-19.35,11.1s-.06-.06-.09,0c.55.86,1,1.94.61,2.13l.42-.25.51-.29,18.29-10.49h0l3.5-4A.14.14,0,0,0,204.19,208.65Z" style="opacity:0.15"></path><path d="M177.49,226.07l4-2.26c.27-.15.12-.82-.2-1.53-.43-.94-1.27-1.85-1.64-1.67h0l-4,2.27c-.79.45-.06,2.16.81,2.92A1,1,0,0,0,177.49,226.07Z" style="fill:#f28f8f"></path><path d="M177.73,224.84a2.87,2.87,0,0,0-1.61-2,.64.64,0,0,0-.59.08c-.6.55.09,2.12.92,2.84a1,1,0,0,0,1,.27C177.77,225.9,177.88,225.45,177.73,224.84Z" style="opacity:0.1"></path></g><g id="freepik--Papers--inject-4"><path id="freepik--shadow--inject-4" d="M172.14,307.25a3.17,3.17,0,0,1-1.55-.38L144.75,292a1.28,1.28,0,0,1,0-2.36l4.61-2.66-2.21-1.28a1.28,1.28,0,0,1,0-2.36l38-22a3.17,3.17,0,0,1,1.55-.37,3.23,3.23,0,0,1,1.55.37l25.83,14.92a1.28,1.28,0,0,1,0,2.37l-4.61,2.66,2.21,1.27a1.28,1.28,0,0,1,0,2.37l-38,21.95A3.17,3.17,0,0,1,172.14,307.25Z" style="opacity:0.05"></path><path d="M212,281.73a.92.92,0,0,0-.54-.75l-25.84-14.91a2.82,2.82,0,0,0-2.59,0L145,288a.92.92,0,0,0-.54.75V290a.93.93,0,0,0,.54.74l25.84,14.92a2.9,2.9,0,0,0,2.6,0l38-21.95a1,1,0,0,0,.54-.74Z" style="fill:#ebebeb"></path><path d="M145,288l38-21.95a2.82,2.82,0,0,1,2.59,0L211.46,281c.72.42.72,1.09,0,1.5l-38,22a2.9,2.9,0,0,1-2.6,0L145,289.52A.79.79,0,0,1,145,288Z" style="fill:#fff"></path><path d="M172.14,304.75v1.17a2.63,2.63,0,0,1-1.3-.31L145,290.7a.92.92,0,0,1-.54-.75v-1.18a.91.91,0,0,0,.54.75l25.83,14.92A2.63,2.63,0,0,0,172.14,304.75Z" style="fill:#e0e0e0"></path><path d="M214.4,275.43a.92.92,0,0,0-.54-.75L188,259.76a2.9,2.9,0,0,0-2.6,0l-38,22a.91.91,0,0,0-.53.75v1.18a.9.9,0,0,0,.53.74l25.84,14.92a2.9,2.9,0,0,0,2.6,0l38-22a.89.89,0,0,0,.54-.73Z" style="fill:#ebebeb"></path><path d="M147.4,281.72l38-22a2.9,2.9,0,0,1,2.6,0l25.83,14.92c.72.42.72,1.09,0,1.5l-38,21.95a2.84,2.84,0,0,1-2.6,0L147.4,283.22A.79.79,0,0,1,147.4,281.72Z" style="fill:#fff"></path><path d="M193.72,271.42c0-.37-.67-.23-.68.1-.09,2.18-1.13,4.62-3.57,4.63a3.46,3.46,0,0,1-1.71-.48c.56-1.78,1-6.18-1.45-5-2,1-1,3.72.54,5.19-2.48,3-3.87.47-4.14-1.44,0-.14,0-.28-.05-.42,0-.42-.77-.16-.75.22a5.85,5.85,0,0,0,.08.69,10.42,10.42,0,0,1,0,3.61l0,.15a3.36,3.36,0,0,1-1,2c-.82.62-1.8-.28-2.23-1a5.57,5.57,0,0,1-.61-1.59,4,4,0,0,1-.13-1c0-.39-.73-.2-.72.15.07,3.22-1.54,5.74-3.67,8-.47.5-1,1-1.44,1.42-.48-1.57-1-3.11-1.49-4.68-.15-.5-.29-1-.41-1.45a5.43,5.43,0,0,0,1.3-2.06c.31-.9.64-3-.7-3.28s-1.71,1.32-1.85,2.23a8.48,8.48,0,0,0,.23,3.25,11.82,11.82,0,0,1-6.39,2.44s0,0,0,0a11.32,11.32,0,0,0,6.52-1.88c.32,1.12.74,2.23,1.08,3.31.2.64.64,1.67,1,2.76a6.38,6.38,0,0,0-1.36,2.12c-.45,1.22-.53,2.77.84,3.42a1.23,1.23,0,0,0,1.76-.41c.63-.93.21-2.75,0-3.76-.11-.48-.25-1-.38-1.42.27-.26.55-.51.82-.78a23.32,23.32,0,0,0,2.67-2.95,11.4,11.4,0,0,0,1.89-4c.58,1.56,1.74,2.79,3.55,1.61,1.26-.81,1.58-2.36,1.59-3.93a2.3,2.3,0,0,0,1.5.94,3.16,3.16,0,0,0,3-1.84,2.62,2.62,0,0,0,1,.44C191.76,277.44,193.88,274.6,193.72,271.42ZM170,277.61a2.55,2.55,0,0,1,.31-1.09.46.46,0,0,1,.34-.25.41.41,0,0,1,.32.24,3,3,0,0,1-.14,2.21,3.86,3.86,0,0,1-.62,1.09c0-.21-.09-.4-.12-.61A8.25,8.25,0,0,1,170,277.61Zm1,12.31a5.9,5.9,0,0,1,.36-1.15,3.28,3.28,0,0,1,.24-.54c0-.06.23-.24.21-.29.36,1.07.87,2.38.35,3.48a.78.78,0,0,1-.47.47.58.58,0,0,1-.51-.16,1,1,0,0,1-.25-.48A3.18,3.18,0,0,1,171,289.92Zm15.6-15.66a3.91,3.91,0,0,1-.33-1.68,1.34,1.34,0,0,1,.13-.59.57.57,0,0,1,.49-.31c.67,0,.75.95.69,1.43a11.35,11.35,0,0,1-.45,2A3.69,3.69,0,0,1,186.56,274.26Z" style="fill:#455a64"></path><path d="M174.54,298.44v1.17a2.63,2.63,0,0,1-1.3-.3L147.41,284.4a.93.93,0,0,1-.54-.75v-1.18a.92.92,0,0,0,.54.75l25.83,14.92A2.63,2.63,0,0,0,174.54,298.44Z" style="fill:#e0e0e0"></path></g><g id="freepik--Image--inject-4"><path d="M288.39,37.64,232.82,69.73a2.86,2.86,0,0,0-1.3,2.25v52.94a2.87,2.87,0,0,0,1.3,2.25l.83.48a2.9,2.9,0,0,0,2.6,0l55.57-32.09a2.9,2.9,0,0,0,1.29-2.25V40.36a2.87,2.87,0,0,0-1.3-2.25l-.82-.47A2.84,2.84,0,0,0,288.39,37.64Z" style="fill:#e0e0e0"></path><path d="M293.06,40c-.16-.54-.66-.71-1.25-.36L236.25,71.71a2.61,2.61,0,0,0-.92,1l-3.42-2a2.59,2.59,0,0,1,.91-1l55.57-32.09a2.9,2.9,0,0,1,2.6,0l.82.48A2.86,2.86,0,0,1,293.06,40Z" style="fill:#fff"></path><path d="M291.81,39.61,236.25,71.7A2.87,2.87,0,0,0,235,74v53c0,.82.58,1.16,1.3.75l55.57-32.09a2.9,2.9,0,0,0,1.29-2.25V40.36C293.11,39.53,292.53,39.2,291.81,39.61Z" style="fill:#f5f5f5"></path><polygon points="238.37 74.43 289.69 44.79 289.69 92.23 238.37 121.87 238.37 74.43" style="fill:#FFAC5E"></polygon><polygon points="238.37 74.43 289.69 44.79 289.69 92.23 238.37 121.87 238.37 74.43" style="fill:#fff;opacity:0.75"></polygon><polygon points="238.37 106.05 252.96 80.86 272.94 95.76 268.08 90.38 278.67 76.33 289.69 83.33 289.69 92.23 238.37 121.87 238.37 106.05" style="fill:#FFAC5E"></polygon><path d="M274.27,62.11A7.57,7.57,0,0,0,270.85,68c0,2.18,1.53,3.07,3.42,2a7.59,7.59,0,0,0,3.43-5.93C277.7,61.9,276.16,61,274.27,62.11Z" style="fill:#FFAC5E"></path></g></g><g id="freepik--Character--inject-4"><g id="freepik--character--inject-4"><path d="M335,324.64c0-.2,1.15-11.86,1.15-11.86s-.83,1.2-7.56.6a36.89,36.89,0,0,1-7.51-1.74l-.44,8.46c-1.18,3.43-7.11,3-13.46,3.32-1.07.06-2.17.06-3.28.06h-.07c-3.39.39-6.42,3-2.44,5.26s9.94,2.36,15.43,2.41C323.39,331.22,334.92,331.18,335,324.64Z" style="fill:#ffa8a7"></path><path d="M290.1,331.31a6.68,6.68,0,0,0,.12,3.5c.34,1.22,4.13,4.9,10,6.55s12.59.67,15.88,1,6.48,1.68,10.33,1.94,7.59.12,10.88-2.95c.5-1.17.84-3.73.58-3.93C337.18,336.92,290.1,331.31,290.1,331.31Z" style="fill:#263238;opacity:0.9"></path><path d="M319.83,321.35c-2.11,2.06-7.24,1.76-12.67,2.07-5.13.28-11.09-.51-14.3,1.26s-3.77,5.76,1.73,10.13c1.59,1.26,3.37,2.93,5.11,3.61,5.76,2.26,11.81,1.09,15.66,1.37,5,.36,8,2,12.54,1.79,5.86-.32,9.25-2.42,10-4.12s-.47-14.25-2.89-13.57c0,0-.35,4.18-10.41,1.9C320.19,324.79,319.82,322.28,319.83,321.35Z" style="fill:#FFAC5E"></path><path d="M319.83,321.35c-2.11,2.06-7.24,1.76-12.67,2.07-5.13.28-11.09-.51-14.3,1.26s-3.77,5.76,1.73,10.13c1.59,1.26,3.37,2.93,5.11,3.61,5.76,2.26,11.81,1.09,15.66,1.37,5,.36,8,2,12.54,1.79,5.86-.32,9.25-2.42,10-4.12s-.47-14.25-2.89-13.57c0,0-.35,4.18-10.41,1.9C320.19,324.79,319.82,322.28,319.83,321.35Z" style="opacity:0.5"></path><path d="M299.7,338.42s-2-13,5.41-14.94l.95,0s-.15-.89-3.06-1.11c-5.6-.44-9.12.26-11.47,2.67a7.23,7.23,0,0,0-1.47,6.18C290.78,333.7,293.67,336.6,299.7,338.42Z" style="fill:#fff"></path><path d="M305,330.73s-.35-5.32,3.27-7.37a2.06,2.06,0,0,1,2.18-.09s-3.5,1.14-3.62,7.47c0,0-.12.44-.92.43C305.66,331.17,305.06,331.17,305,330.73Z" style="fill:#fff"></path><path d="M313.83,323.12s0-.18-1-.19a1.63,1.63,0,0,0-1,.3s-2.67,1.74-2.27,7.3a1,1,0,0,0,1,.69.82.82,0,0,0,.94-.72S311.14,324.65,313.83,323.12Z" style="fill:#fff"></path><path d="M317,322.7s-.22-.3-.9-.18c-.85.15-1,.51-1,.51s-1.7,2.46-.94,7c0,0,.05.79,1.14.68s.79-.95.79-.95S315.42,323.91,317,322.7Z" style="fill:#fff"></path><path d="M320,249.29c-.48,11.67-.09,65.92-.09,65.92s7.17,6,16.21,2.91l5.61-62.28Z" style="fill:#37474f"></path><path d="M302.88,344.63c0-.2,2.13-11.33,2.13-11.33s-2.12,1.42-8.86,1a30.21,30.21,0,0,1-6.66-1.25l-1.09,8.2c-1.07,3.46-7,3.17-13.35,3.72-1.06.1-2.17.14-3.28.17h-.06c-3.39.49-6.33,3.18-2.28,5.33s10,2.06,15.49,1.95C291.51,352.32,303,351.17,302.88,344.63Z" style="fill:#ffa8a7"></path><path d="M258.24,353.41a6.63,6.63,0,0,0,.23,3.5c.37,1.21,4.27,4.77,10.17,6.24s12.61.29,15.91.56,6.53,1.48,10.38,1.63,7.59-.11,10.79-3.29c.46-1.18.73-3.75.46-3.94C305.47,357.59,258.24,353.41,258.24,353.41Z" style="fill:#263238;opacity:0.9"></path><path d="M287.65,342.56c-2,2.12-7.18,2-12.6,2.44-5.11.45-11.1-.17-14.26,1.7s-3.59,5.88,2,10.07c1.63,1.22,3.46,2.83,5.22,3.46,5.82,2.08,11.84.73,15.7.89,5,.21,8.05,1.79,12.58,1.41,5.85-.49,9.17-2.7,9.85-4.42s-.9-14.23-3.3-13.48c0,0-.22,4.2-10.35,2.22C288.11,346,287.67,343.49,287.65,342.56Z" style="fill:#FFAC5E"></path><path d="M287.65,342.56c-2,2.12-7.18,2-12.6,2.44-5.11.45-11.1-.17-14.26,1.7s-3.59,5.88,2,10.07c1.63,1.22,3.46,2.83,5.22,3.46,5.82,2.08,11.84.73,15.7.89,5,.21,8.05,1.79,12.58,1.41,5.85-.49,9.17-2.7,9.85-4.42s-.9-14.23-3.3-13.48c0,0-.22,4.2-10.35,2.22C288.11,346,287.67,343.49,287.65,342.56Z" style="opacity:0.5"></path><path d="M268.05,360.23s-2.35-13,4.95-15.1l1-.06s-.18-.89-3.1-1c-5.61-.27-9.11.54-11.39,3a7.23,7.23,0,0,0-1.27,6.22C259,355.78,262,358.59,268.05,360.23Z" style="fill:#fff"></path><path d="M273.14,352.38s-.52-5.31,3-7.47a2.06,2.06,0,0,1,2.18-.15s-3.47,1.24-3.4,7.58c0,0-.1.44-.91.46C273.78,352.8,273.19,352.81,273.14,352.38Z" style="fill:#fff"></path><path d="M281.71,344.5s0-.17-1-.16a1.62,1.62,0,0,0-1,.33s-2.61,1.82-2,7.37a1,1,0,0,0,1.06.66.81.81,0,0,0,.91-.74S279.06,346.12,281.71,344.5Z" style="fill:#fff"></path><path d="M284.81,344s-.23-.29-.9-.15c-.85.17-1,.54-1,.54s-1.61,2.51-.72,7.05c0,0,.07.79,1.16.65s.76-1,.76-1S283.32,345.24,284.81,344Z" style="fill:#fff"></path><path d="M291.58,272C290.21,284,288.93,319,288,336.48a24.11,24.11,0,0,0,17.44,1.94l12.45-62.76Z" style="fill:#455a64"></path><path d="M369.9,415.12a1.46,1.46,0,0,1-1.46-1.46V319.94a1.46,1.46,0,0,1,2.92,0v93.72A1.46,1.46,0,0,1,369.9,415.12Z" style="fill:#455a64"></path><path d="M427.89,381a1.46,1.46,0,0,1-1.36-.93l-28.74-72.74a1.47,1.47,0,0,1,.82-1.89,1.45,1.45,0,0,1,1.89.82L429.24,379a1.45,1.45,0,0,1-.82,1.89A1.4,1.4,0,0,1,427.89,381Z" style="fill:#455a64"></path><path d="M424.44,372.27a1.42,1.42,0,0,1-1.06-.46L369.9,315.22l-53.38,56.35a1.46,1.46,0,1,1-2.12-2l54.44-57.47a1.48,1.48,0,0,1,1.06-.46h0a1.46,1.46,0,0,1,1.06.46l54.54,57.71a1.46,1.46,0,0,1-.06,2.06A1.43,1.43,0,0,1,424.44,372.27Z" style="fill:#455a64"></path><path d="M311.91,381a1.48,1.48,0,0,1-1.35-2l28.74-72.74a1.46,1.46,0,0,1,2.71,1.07l-28.74,72.74A1.45,1.45,0,0,1,311.91,381Z" style="fill:#455a64"></path><path d="M311.21,287.8c-1-5.88,3.75-10.47,12.76-16.55a213.3,213.3,0,0,1,26.1-14.67c7.54-3.46,15.25-3.14,24.91,1.82,13.4,6.89,53.75,31.36,53.75,31.36s-60.32,34.05-71.93,32.53-40.62-20.4-42.91-27S311.21,287.8,311.21,287.8Z" style="fill:#FFAC5E"></path><path d="M362.63,315.12c-8.66,7.84-17.71,1.1-32-8.2-16.21-10.52-19.39-19.12-19.39-19.12s0,6.45,1.21,9.47,3.83,6.45,15.52,14.51,20.15,12.09,28,13.59l6.2-.86" style="fill:#FFAC5E"></path><path d="M330.6,306.92c-16.21-10.52-19.39-19.12-19.39-19.12s0,6.45,1.21,9.47,3.83,6.45,15.52,14.51,20.15,12.09,28,13.59l6.2-.86.48-9.39C354,323,344.92,316.22,330.6,306.92Z" style="opacity:0.5"></path><path d="M425.91,370l3.8,10a1.15,1.15,0,0,1,0,.26.54.54,0,0,1,0,.18,1.16,1.16,0,0,1-.57.63,2.54,2.54,0,0,1-2.31,0,1,1,0,0,1-.45-.47v0l0-.14-3.52-9.4Z" style="fill:#FFAC5E"></path><path d="M313.9,370l-3.8,10a.78.78,0,0,0,0,.26v.18a1.24,1.24,0,0,0,.57.63,2.56,2.56,0,0,0,2.32,0,1.05,1.05,0,0,0,.45-.47v0l0-.14,3.52-9.4Z" style="fill:#FFAC5E"></path><path d="M371.58,406.41v8.29a.83.83,0,0,1-.49.69,2.63,2.63,0,0,1-2.38,0,.85.85,0,0,1-.49-.69v-8.29A3.57,3.57,0,0,1,371.58,406.41Z" style="fill:#FFAC5E"></path><path d="M409.8,264.48s-48.39-14.6-56.81-16.9-24.55-6.19-29.26-4.07-7.11,4.56-7.55,11.36c-.09,1.28,0,7.51,0,7.51s24.51,10,43.68,10S409.8,264.48,409.8,264.48Z" style="fill:#37474f"></path><path d="M410,258.42c3,10.36,4,20.5-3.27,28-5.27,5.44-27.15,24.84-46.32,19-21.43-6.57-47-25.17-47-25.17s-16.54.51-16.63-4.35c0-1.19-5.22-2.66-5.16-3.95.67-14.26,10.26-20.19,24.56-17.6,15,2.72,48.55,12.28,48.55,12.28Z" style="fill:#455a64"></path><path d="M386,301.56c3.6-13.17,7.92-29.88,7.92-29.88l-19.77,6.23c-4.09,12.93-6.16,19.95-16.37,18.29s-44.44-16-44.44-16,25.58,18.6,47,25.17C369,308,378.09,305.54,386,301.56Z" style="fill:#37474f"></path><path d="M377.61,189.54c-4.52-1.7-8.65-.12-19.77,3.91-13,4.71-27.89,10.09-27.89,10.09l-16.88-33.88c-2.13-4.56-3.71-7.59-7.55-10.83A12,12,0,0,0,300,157.4c-5.91.22-17.37,6.29-11.35,12.17,3.58,3.49,9.76,4.89,13.15,7,1.8,1.13,2.74,4,3.52,6.12,3.41,9.43,9.62,29,11.25,33.32,1.77,4.65,6,5.94,11.82,4.61,8.52-1.94,47.2-12.46,47.2-12.46Z" style="fill:#ffa8a7"></path><path d="M300,165.31l-10.32,5.17a4,4,0,0,1,.88.67l5.8-2.22c1.89-.71,4.21-1.72,4.21-1.72s4.32.54,6.41-.42S300,165.31,300,165.31Z" style="fill:#f28f8f"></path><path d="M377.61,188.62s-1.59-1.71-9.25.29S343.22,198,343.22,198s-7.62,8.86,2.35,19.49L374.19,210l3.42-11.08V188.62" style="fill:#455a64"></path><path d="M413,199.32c-1.6-5.26-5.49-9.85-11.83-10.41-1.55.26-4.19.51-5.66.76-2.59,1.27-9.39,1.87-17.89-.13a18.28,18.28,0,0,0-7.71,4.07c-4.86,4.21-7.75,10.57-10.47,30.32,0,0-3.67,31-3.91,40,5.92,17.09,34.25,16.65,42.55,13.39,17.36-6.81,17.84-17.48,17.84-17.48s-.38-26.3-.6-40.74C415.12,206.83,414.08,202.92,413,199.32Z" style="fill:#f5f5f5"></path><path d="M404.44,193.45c-1.43-.53-8.35,6.38-8.35,6.38s-3,10.27.4,18.55,4.4,11.14,4.4,11.14-14.33,7.67-20.44,27.31c-2.89,9.3-4.93,16.29-6.27,21.08,9.37,2.09,19.47,1.16,23.89-.58,17.36-6.81,17.84-17.48,17.84-17.48s-.38-26.3-.6-40.74c-.05-3.25-.16-5.9-.31-8.12C410.14,202.34,405.16,193.71,404.44,193.45Z" style="fill:#e0e0e0"></path><path d="M279.09,173a.29.29,0,0,0,.32.05l2.18-1.2a.26.26,0,0,0-.25-.45l-2.18,1.19a.25.25,0,0,0-.1.35Z" style="fill:#263238"></path><path d="M286.75,172l-5.59.75a.87.87,0,0,1-.73-1.48l4-4Z" style="fill:#FFAC5E"></path><g style="opacity:0.2"><path d="M286.75,172l-5.59.75a.87.87,0,0,1-.73-1.48l4-4Z"></path></g><path d="M313.65,152.68a1.35,1.35,0,0,1,1.47.45c1.19,1.17,1.85,3.93.49,4.47L286.75,172a3.45,3.45,0,0,1-2.25-2.3,3.37,3.37,0,0,1-.06-2.46Z" style="fill:#FFAC5E"></path><g style="opacity:0.5"><path d="M313.65,152.68a1.35,1.35,0,0,1,1.47.45c1.19,1.17,1.85,3.93.49,4.47L286.75,172a3.45,3.45,0,0,1-2.25-2.3,3.37,3.37,0,0,1-.06-2.46Z"></path></g><path d="M317.05,152.69a1.13,1.13,0,0,1,1.51.49,1.11,1.11,0,0,1-.49,1.5l-2.32,1.15h0a.57.57,0,0,1-.56-.08,1.76,1.76,0,0,1-.71-1.42.55.55,0,0,1,.26-.5h0Z" style="fill:#37474f"></path><path d="M303.19,157.88a15.68,15.68,0,0,0-2.2-1.53,9.5,9.5,0,0,0-3.75-1.33,2.94,2.94,0,0,0-1.5.14,4.52,4.52,0,0,0-1.24.94c-2,1.85-4.77,2.46-6.76,4.28-1.76,1.62-4.7,6.82-3.53,8.55.73,1.08,3.14-.61,4.26-2.05,0,1.32,2,1.27,3.87-1,1.59-1.9,3.49-4.43,3.49-4.43Z" style="fill:#ffa8a7"></path><path d="M296,159.14a1.6,1.6,0,0,0-1,1.3,4.14,4.14,0,0,0,.15,1.84l.66-.87Z" style="fill:#f28f8f"></path><path d="M313.07,169.66c-1.77-3.68-1.66-6.79-5-8.22s-5-1-8.89-2.3c-5.52-1.85-4.15,3.6.34,5.91s7.52,1.74,7.52,1.74S309.73,174.36,313.07,169.66Z" style="fill:#ffa8a7"></path><path d="M403.07,146.3c-2-3.15-3.92-2.68-3.92-2.68l-.46,3.62c-5.51-6.74-20-12.93-26.4-12.93-8,0-14.48,6.75-14.48,15.08s6.49,15.08,14.48,15.08c5.94,0,18.81-2.13,25.06-6.63l-.48,3.73-1.37-.16.1,18.7s3.11-.75,4.18-2.88,2.7-15,2.7-15C405.2,155.09,404.8,149,403.07,146.3Z" style="fill:#FFAC5E"></path><path d="M403.07,146.3c-2-3.15-3.92-2.68-3.92-2.68l-.46,3.62-1.34,10.6-.48,3.73-1.37-.16.1,18.7s3.11-.75,4.18-2.88,2.7-15,2.7-15C405.2,155.09,404.8,149,403.07,146.3Z" style="opacity:0.5"></path><path d="M372.29,134.31c-8,0-14.48,6.75-14.48,15.08s6.49,15.08,14.48,15.08c5.94,0,18.81-2.13,25.06-6.63l1.34-10.6C393.18,140.5,378.69,134.31,372.29,134.31Z" style="opacity:0.6000000000000001"></path><path d="M396,162.81c1,.63,1.55-1.53,2.78-2.87s4.83-3.08,7.35,1.34-2,9.86-4.18,10.68c-4.25,1.57-6.24-1-6.24-1l-.19,18.74c-5.55,4.86-22.13,4.7-18,1.41l0-6.39s-5,.78-7.38.39c-4-.65-6.55-4-7.77-8.49-2-7.29-2.71-13.17-1-27.5,1.82-15.7,19.36-15.86,28.83-9.66S396,162.81,396,162.81Z" style="fill:#ffa8a7"></path><path d="M405.2,141a3.29,3.29,0,0,0-4.59-1.58,3.55,3.55,0,0,0-1.11,1,7.92,7.92,0,0,0-2-4.31c-2.36-2.72-6.32-3-13.07-4.12a72.26,72.26,0,0,1-8-1.45c-2.74-.77-5.44-2.6-8-3.89a4,4,0,0,0-2.71-.63,2.66,2.66,0,0,0-1.72,2,7.76,7.76,0,0,0-.05,2.72c-1.57-1.73-4.62-1.47-6.22.22a6.35,6.35,0,0,0-1,6.56,11.64,11.64,0,0,0,4.53,5.18c8.49,5.73,18.5,4.14,28,3a2.6,2.6,0,0,1,1.36.09c1.48.68,1.8,5.3,2.06,6.63.88,4.5,1.61,12.13,3.3,12.16.51,0,1.54-3.45,2.78-4.63,1.5-1.42.7-12.58.45-15.57Z" style="fill:#FFAC5E"></path><path d="M405.2,141a3.29,3.29,0,0,0-4.59-1.58,3.55,3.55,0,0,0-1.11,1,7.92,7.92,0,0,0-2-4.31c-2.36-2.72-6.32-3-13.07-4.12a72.26,72.26,0,0,1-8-1.45c-2.74-.77-5.44-2.6-8-3.89a4,4,0,0,0-2.71-.63,2.66,2.66,0,0,0-1.72,2,7.76,7.76,0,0,0-.05,2.72c-1.57-1.73-4.62-1.47-6.22.22a6.35,6.35,0,0,0-1,6.56,11.64,11.64,0,0,0,4.53,5.18c8.49,5.73,18.5,4.14,28,3a2.6,2.6,0,0,1,1.36.09c1.48.68,1.8,5.3,2.06,6.63.88,4.5,1.61,12.13,3.3,12.16.51,0,1.54-3.45,2.78-4.63,1.5-1.42.7-12.58.45-15.57Z" style="opacity:0.5"></path><path d="M377.49,184.68s9-1.88,12.12-3.62a10.59,10.59,0,0,0,4.34-4.47,15,15,0,0,1-2.47,5.27c-2.3,3.06-14,5.31-14,5.31Z" style="fill:#f28f8f"></path><path d="M380.73,159.94a1.81,1.81,0,1,0,1.8-1.95A1.89,1.89,0,0,0,380.73,159.94Z" style="fill:#263238"></path><path d="M383.83,152.15l3.85,2.21a2.47,2.47,0,0,0-.9-3.19A2.1,2.1,0,0,0,383.83,152.15Z" style="fill:#263238"></path><path d="M381.08,172.72,375.34,175a3,3,0,0,0,3.9,2A3.38,3.38,0,0,0,381.08,172.72Z" style="fill:#f28f8f"></path><path d="M362.76,154l4-2a2.08,2.08,0,0,0-2.87-1.15A2.5,2.5,0,0,0,362.76,154Z" style="fill:#263238"></path><path d="M364.76,159.94a1.86,1.86,0,0,0,1.8,1.94,2,2,0,1,0-1.8-1.94Z" style="fill:#263238"></path><polygon points="374.27 158.51 375.34 169.83 368.76 169.08 374.27 158.51" style="fill:#f28f8f"></polygon><path d="M382.3,155.3a4.79,4.79,0,0,0,0,9.57h.88a4.79,4.79,0,0,0,0-9.57Zm.88,10.55h-.88a5.76,5.76,0,0,1,0-11.52h.88a5.76,5.76,0,0,1,0,11.52Z" style="fill:#263238"></path><path d="M365.08,155.3a4.79,4.79,0,0,0,0,9.57H366a4.79,4.79,0,0,0,0-9.57Zm.87,10.55h-.87a5.76,5.76,0,0,1,0-11.51H366a5.76,5.76,0,0,1,0,11.52Z" style="fill:#263238"></path><path d="M376.72,159a3.72,3.72,0,0,0-3-1.55,3,3,0,0,0-2.6,1l-.76-.58a3.87,3.87,0,0,1,3.41-1.39,4.62,4.62,0,0,1,3.75,2Z" style="fill:#263238"></path><path d="M399.19,159.54H388.34v-.91h12.55A5.35,5.35,0,0,0,399.19,159.54Z" style="fill:#263238"></path><path d="M362.15,324.51c4.93-.25,8.79-3.87,20.52-8.76,21.65-9,37.88-16.23,44.07-27.57s10.57-44.08,9-58.25a18.94,18.94,0,0,0-1.06-4.7l1.52-.22-3.94-3.36h0c-4-3.31-10.63-.36-15.59,2.34-14.18,7.71-25.26,15.21-34,42.27-6.6,20.36-10.94,38.92-20,48.85" style="fill:#FFAC5E"></path><path d="M434.7,225.23l1.52-.22-3.94-3.36h0c-4-3.31-10.63-.36-15.59,2.34-14.18,7.71-25.26,15.21-34,42.27-6.6,20.36-10.94,38.92-20,48.85l-.48,9.39c4.93-.25,8.79-3.87,20.52-8.76,21.65-9,37.88-16.23,44.07-27.57s10.57-44.08,9-58.25A18.94,18.94,0,0,0,434.7,225.23Z" style="opacity:0.30000000000000004"></path><path d="M420.79,227.49c-14.17,7.71-25.25,15.2-34,42.26s-13.55,51-30.82,55.62c0,0,7.81,3.1,31.73-7,7.62-3.22,16.86-9.09,22.92-12.5,11.9-6.67,19.11-12.14,20.25-14.19,6.28-11.28,10.56-44.07,9-58.25S427.89,223.62,420.79,227.49Z" style="fill:#FFAC5E"></path><path d="M408.09,235.49l2,4.7-5.14,29.15c-1.22,2.26-5.13,4.39-7,7.16a47.85,47.85,0,0,0-3.55,5.91c-.64,1.42-1.16,5,2,2.88,2.61-1.78,4.41-4.51,5.11-4.78.51-.2.27,2.18.25,2.35-.44,3.61-2.49,7.27-4.28,10.36-.86,1.49-2.64,3.85-.74,5.22a6.36,6.36,0,0,0,1.63.75,10.59,10.59,0,0,0,11.58-2.91c3.71-4.31,5-9.79,5.52-15.35a87.57,87.57,0,0,1,4.25-19.8c3.31-9.64,6.57-24.7,6-27.26-.2-.84-1.35-3.72-2.89-7.41-.67.34-1.33.68-2,1A89.42,89.42,0,0,0,408.09,235.49Z" style="fill:#37474f;opacity:0.1"></path><path d="M428.23,232.82c-.7-2.94-13.2-31.26-13.2-31.26l-14.24,9.24,11.85,28.34L407.5,268.3c-1.22,2.25-5.13,4.39-7,7.16a47.88,47.88,0,0,0-3.55,5.9c-.64,1.42-1.16,5,2,2.89,2.61-1.79,4.41-4.51,5.11-4.79.51-.2.27,2.19.25,2.36-.44,3.6-2.49,7.26-4.28,10.35-.86,1.49-2.64,3.86-.74,5.22a6,6,0,0,0,1.63.75,10.58,10.58,0,0,0,11.58-2.9c3.71-4.31,5-9.8,5.52-15.36a87.79,87.79,0,0,1,4.25-19.8C425.58,250.44,428.84,235.38,428.23,232.82Z" style="fill:#ffa8a7"></path><path d="M401.16,188.91c4.87-.31,8,.67,11.65,6.63s13.09,26.62,13.09,26.62-2.74,7.5-18.4,10.66l-9.43-20S392,195.75,401.16,188.91Z" style="fill:#455a64"></path></g></g></svg>