<svg xmlns="http://www.w3.org/2000/svg" width="24" height="24" viewBox="0 0 24 24">
  <path id="usd-circle" d="M11.909,9.727h4.364a1.091,1.091,0,1,0,0-2.182H14.091V6.455a1.091,1.091,0,0,0-2.182,0V7.545a3.273,3.273,0,0,0,0,6.545h2.182a1.091,1.091,0,1,1,0,2.182H9.727a1.091,1.091,0,0,0,0,2.182h2.182v1.091a1.091,1.091,0,0,0,2.182,0V18.455a3.273,3.273,0,0,0,0-6.545H11.909a1.091,1.091,0,0,1,0-2.182ZM13,1A12,12,0,1,0,25,13,12,12,0,0,0,13,1Zm0,21.818A9.818,9.818,0,1,1,22.818,13,9.818,9.818,0,0,1,13,22.818Z" transform="translate(-1 -1)" fill="#feab5e"/>
</svg>
